<svg version="1.1" viewBox="0.0 0.0 915.3858267716536 216.66666666666666" fill="none" stroke="none" stroke-linecap="square" stroke-miterlimit="10" xmlns:xlink="http://www.w3.org/1999/xlink" xmlns="http://www.w3.org/2000/svg"><clipPath id="p.0"><path d="m0 0l915.3858 0l0 216.66667l-915.3858 0l0 -216.66667z" clip-rule="nonzero"/></clipPath><g clip-path="url(#p.0)"><path fill="#000000" fill-opacity="0.0" d="m0 0l915.3858 0l0 216.66667l-915.3858 0z" fill-rule="evenodd"/><path fill="#cfe2f3" d="m-1.0393701 79.073494l863.5906 0l0 59.90551l-863.5906 0z" fill-rule="evenodd"/><path stroke="#000000" stroke-width="1.0" stroke-linejoin="round" stroke-linecap="butt" d="m-1.0393701 79.073494l863.5906 0l0 59.90551l-863.5906 0z" fill-rule="evenodd"/><path fill="#d9d2e9" d="m-1.0393701 79.26247l48.0 0l0 59.527557l-48.0 0z" fill-rule="evenodd"/><path stroke="#000000" stroke-width="1.0" stroke-linejoin="round" stroke-linecap="butt" d="m-1.0393701 79.26247l48.0 0l0 59.527557l-48.0 0z" fill-rule="evenodd"/><path fill="#d9d2e9" d="m46.96063 79.26247l48.000004 0l0 59.527557l-48.000004 0z" fill-rule="evenodd"/><path stroke="#000000" stroke-width="1.0" stroke-linejoin="round" stroke-linecap="butt" d="m46.96063 79.26247l48.000004 0l0 59.527557l-48.000004 0z" fill-rule="evenodd"/><path fill="#d9d2e9" d="m94.96063 79.26247l48.0 0l0 59.527557l-48.0 0z" fill-rule="evenodd"/><path stroke="#000000" stroke-width="1.0" stroke-linejoin="round" stroke-linecap="butt" d="m94.96063 79.26247l48.0 0l0 59.527557l-48.0 0z" fill-rule="evenodd"/><path fill="#d9d2e9" d="m142.96063 79.26247l48.0 0l0 59.527557l-48.0 0z" fill-rule="evenodd"/><path stroke="#000000" stroke-width="1.0" stroke-linejoin="round" stroke-linecap="butt" d="m142.96063 79.26247l48.0 0l0 59.527557l-48.0 0z" fill-rule="evenodd"/><path fill="#d9d2e9" d="m190.96063 79.26247l48.0 0l0 59.527557l-48.0 0z" fill-rule="evenodd"/><path stroke="#000000" stroke-width="1.0" stroke-linejoin="round" stroke-linecap="butt" d="m190.96063 79.26247l48.0 0l0 59.527557l-48.0 0z" fill-rule="evenodd"/><path fill="#d9d2e9" d="m238.96063 79.26247l48.0 0l0 59.527557l-48.0 0z" fill-rule="evenodd"/><path stroke="#000000" stroke-width="1.0" stroke-linejoin="round" stroke-linecap="butt" d="m238.96063 79.26247l48.0 0l0 59.527557l-48.0 0z" fill-rule="evenodd"/><path fill="#d9d2e9" d="m286.96063 79.26247l48.0 0l0 59.527557l-48.0 0z" fill-rule="evenodd"/><path stroke="#000000" stroke-width="1.0" stroke-linejoin="round" stroke-linecap="butt" d="m286.96063 79.26247l48.0 0l0 59.527557l-48.0 0z" fill-rule="evenodd"/><path fill="#d9d2e9" d="m334.96063 79.26247l48.0 0l0 59.527557l-48.0 0z" fill-rule="evenodd"/><path stroke="#000000" stroke-width="1.0" stroke-linejoin="round" stroke-linecap="butt" d="m334.96063 79.26247l48.0 0l0 59.527557l-48.0 0z" fill-rule="evenodd"/><path fill="#d9d2e9" d="m382.96063 79.26247l48.0 0l0 59.527557l-48.0 0z" fill-rule="evenodd"/><path stroke="#000000" stroke-width="1.0" stroke-linejoin="round" stroke-linecap="butt" d="m382.96063 79.26247l48.0 0l0 59.527557l-48.0 0z" fill-rule="evenodd"/><path fill="#d9d2e9" d="m430.96063 79.26247l48.0 0l0 59.527557l-48.0 0z" fill-rule="evenodd"/><path stroke="#000000" stroke-width="1.0" stroke-linejoin="round" stroke-linecap="butt" d="m430.96063 79.26247l48.0 0l0 59.527557l-48.0 0z" fill-rule="evenodd"/><path fill="#d9d2e9" d="m478.96063 79.26247l48.0 0l0 59.527557l-48.0 0z" fill-rule="evenodd"/><path stroke="#000000" stroke-width="1.0" stroke-linejoin="round" stroke-linecap="butt" d="m478.96063 79.26247l48.0 0l0 59.527557l-48.0 0z" fill-rule="evenodd"/><path fill="#d9d2e9" d="m526.96063 79.26247l48.0 0l0 59.527557l-48.0 0z" fill-rule="evenodd"/><path stroke="#000000" stroke-width="1.0" stroke-linejoin="round" stroke-linecap="butt" d="m526.96063 79.26247l48.0 0l0 59.527557l-48.0 0z" fill-rule="evenodd"/><path fill="#d9d2e9" d="m574.96063 79.26247l48.0 0l0 59.527557l-48.0 0z" fill-rule="evenodd"/><path stroke="#000000" stroke-width="1.0" stroke-linejoin="round" stroke-linecap="butt" d="m574.96063 79.26247l48.0 0l0 59.527557l-48.0 0z" fill-rule="evenodd"/><path fill="#d9d2e9" d="m622.96063 79.26247l48.0 0l0 59.527557l-48.0 0z" fill-rule="evenodd"/><path stroke="#000000" stroke-width="1.0" stroke-linejoin="round" stroke-linecap="butt" d="m622.96063 79.26247l48.0 0l0 59.527557l-48.0 0z" fill-rule="evenodd"/><path fill="#d9d2e9" d="m670.96063 79.26247l48.0 0l0 59.527557l-48.0 0z" fill-rule="evenodd"/><path stroke="#000000" stroke-width="1.0" stroke-linejoin="round" stroke-linecap="butt" d="m670.96063 79.26247l48.0 0l0 59.527557l-48.0 0z" fill-rule="evenodd"/><path fill="#d9ead3" d="m718.96063 79.26247l48.0 0l0 59.527557l-48.0 0z" fill-rule="evenodd"/><path stroke="#000000" stroke-width="1.0" stroke-linejoin="round" stroke-linecap="butt" d="m718.96063 79.26247l48.0 0l0 59.527557l-48.0 0z" fill-rule="evenodd"/><path fill="#d9ead3" d="m766.96063 79.26247l48.0 0l0 59.527557l-48.0 0z" fill-rule="evenodd"/><path stroke="#000000" stroke-width="1.0" stroke-linejoin="round" stroke-linecap="butt" d="m766.96063 79.26247l48.0 0l0 59.527557l-48.0 0z" fill-rule="evenodd"/><path fill="#d9ead3" d="m814.96063 79.26247l48.0 0l0 59.527557l-48.0 0z" fill-rule="evenodd"/><path stroke="#000000" stroke-width="1.0" stroke-linejoin="round" stroke-linecap="butt" d="m814.96063 79.26247l48.0 0l0 59.527557l-48.0 0z" fill-rule="evenodd"/><path fill="#000000" fill-opacity="0.0" d="m232.29396 138.79002l250.92912 0l0 42.015747l-250.92912 0z" fill-rule="evenodd"/><path fill="#000000" d="m265.80814 152.39752l0 1.484375l-6.984375 0l0 4.234375l6.125 0l0 1.484375l-6.125 0l0 6.109375l-1.765625 0l0 -13.3125l8.75 0zm5.616394 3.4375q0.046875 0 0.09375 0q0.046875 0 0.125 0.015625l0 1.671875q-1.796875 0 -2.65625 0.953125q-0.84375 0.9375 -0.84375 2.921875l0 4.3125l-1.578125 0l0 -9.640625l1.484375 0l0 2.03125l0.046875 0q0.546875 -1.15625 1.359375 -1.703125q0.828125 -0.5625 1.96875 -0.5625zm4.906708 0.015625q1.96875 0 2.78125 0.703125q0.828125 0.6875 0.828125 1.875q0 5.015625 0 5.5625q0 0.546875 0.5 0.546875q0.109375 0 0.234375 -0.03125q0.140625 -0.03125 0.25 -0.0625l0 1.234375q-0.21875 0.125 -0.5 0.1875q-0.28125 0.078125 -0.625 0.078125q-0.65625 0 -1.0 -0.375q-0.34375 -0.375 -0.34375 -1.125q-0.640625 0.75 -1.5 1.125q-0.84375 0.375 -1.90625 0.375q-1.484375 0 -2.34375 -0.703125q-0.84375 -0.71875 -0.84375 -2.015625q0 -1.296875 0.828125 -2.046875q0.828125 -0.765625 3.90625 -1.15625q1.03125 -0.140625 1.390625 -0.390625q0.375 -0.265625 0.375 -0.796875q0 -0.796875 -0.515625 -1.1875q-0.5 -0.40625 -1.625 -0.40625q-1.171875 0 -1.765625 0.453125q-0.59375 0.4375 -0.640625 1.375l-1.578125 0q0.078125 -1.609375 1.125 -2.40625q1.0625 -0.8125 2.96875 -0.8125zm-2.796875 7.265625q0 0.671875 0.484375 1.046875q0.5 0.375 1.390625 0.375q1.34375 0 2.140625 -0.65625q0.796875 -0.671875 0.796875 -1.5l0 -1.65625q-0.390625 0.28125 -1.03125 0.390625q-0.640625 0.09375 -1.703125 0.234375q-1.046875 0.15625 -1.5625 0.578125q-0.515625 0.421875 -0.515625 1.1875zm13.520447 -7.265625q1.046875 0 1.71875 0.421875q0.671875 0.421875 0.921875 1.21875q0.5 -0.78125 1.28125 -1.203125q0.796875 -0.4375 1.765625 -0.4375q1.625 0 2.40625 0.734375q0.78125 0.734375 0.78125 2.0l0 7.125l-1.578125 0l0 -6.390625q0 -1.046875 -0.453125 -1.5625q-0.4375 -0.515625 -1.421875 -0.515625q-1.1875 0 -1.859375 0.6875q-0.65625 0.6875 -0.65625 1.71875l0 6.0625l-1.59375 0l0 -6.390625q0 -1.046875 -0.4375 -1.5625q-0.4375 -0.515625 -1.359375 -0.515625q-0.765625 0 -1.34375 0.359375q-0.578125 0.359375 -0.90625 1.0q-0.328125 0.625 -0.328125 1.0625l0 6.046875l-1.59375 0l0 -9.640625l1.5 0l0 1.421875l0.03125 0q0.546875 -0.84375 1.3125 -1.234375q0.78125 -0.40625 1.8125 -0.40625zm15.273651 0q2.078125 0 3.21875 1.5q1.15625 1.484375 1.15625 3.828125l0 0.1875l-7.234375 0l0 0.109375q0 1.390625 0.796875 2.234375q0.8125 0.828125 2.21875 0.828125q1.046875 0 1.671875 -0.484375q0.625 -0.5 0.828125 -1.40625l1.5625 0q-0.328125 1.609375 -1.40625 2.453125q-1.078125 0.84375 -2.71875 0.84375q-1.515625 0 -2.578125 -0.6875q-1.046875 -0.6875 -1.546875 -1.90625q-0.5 -1.234375 -0.5 -2.515625q0 -2.140625 1.28125 -3.5625q1.296875 -1.421875 3.25 -1.421875zm-2.859375 4.109375l5.546875 0q-0.078125 -1.171875 -0.859375 -1.9375q-0.765625 -0.78125 -1.9375 -0.78125q-1.09375 0 -1.875 0.734375q-0.765625 0.734375 -0.875 1.984375zm12.082947 -4.109375q1.9375 0 2.890625 0.75q0.953125 0.75 1.03125 2.265625l-1.578125 0l0 -0.03125q-0.0625 -0.765625 -0.671875 -1.171875q-0.609375 -0.421875 -1.5625 -0.421875q-0.953125 0 -1.515625 0.328125q-0.546875 0.3125 -0.546875 0.90625q0 0.515625 0.484375 0.859375q0.5 0.328125 1.484375 0.546875l1.484375 0.328125q1.40625 0.3125 2.125 0.953125q0.734375 0.640625 0.734375 1.734375q0 1.421875 -1.109375 2.234375q-1.09375 0.8125 -2.984375 0.8125q-1.859375 0 -2.953125 -0.828125q-1.078125 -0.84375 -1.140625 -2.453125l1.59375 0q0.03125 0.90625 0.703125 1.390625q0.6875 0.484375 1.875 0.484375q1.15625 0 1.75 -0.359375q0.59375 -0.375 0.59375 -1.078125q0 -0.65625 -0.59375 -1.03125q-0.59375 -0.375 -2.40625 -0.734375q-1.828125 -0.359375 -2.578125 -1.015625q-0.734375 -0.65625 -0.734375 -1.734375q0 -1.265625 1.03125 -2.0q1.03125 -0.734375 2.59375 -0.734375zm16.042694 -3.78125q2.21875 0 3.515625 1.078125q1.3125 1.078125 1.390625 3.140625l-1.671875 0q-0.15625 -1.359375 -1.0 -2.03125q-0.828125 -0.6875 -2.3125 -0.6875q-1.421875 0 -2.203125 0.59375q-0.78125 0.578125 -0.78125 1.671875q0 0.78125 0.65625 1.28125q0.671875 0.5 3.625 1.09375q2.125 0.4375 3.171875 1.34375q1.0625 0.90625 1.0625 2.5q0 1.859375 -1.515625 2.921875q-1.515625 1.046875 -3.6875 1.046875q-2.421875 0 -3.953125 -1.203125q-1.53125 -1.21875 -1.546875 -3.484375l1.6875 0q0.015625 1.515625 1.078125 2.359375q1.078125 0.84375 2.796875 0.84375q1.609375 0 2.484375 -0.625q0.890625 -0.625 0.890625 -1.796875q0 -0.953125 -0.8125 -1.515625q-0.8125 -0.578125 -2.9375 -1.0q-2.84375 -0.53125 -3.8125 -1.375q-0.953125 -0.859375 -0.953125 -2.25q0 -1.796875 1.359375 -2.84375q1.359375 -1.0625 3.46875 -1.0625zm12.103912 3.78125q2.0625 0 3.25 1.421875q1.1875 1.421875 1.1875 3.640625q0 2.25 -1.1875 3.640625q-1.171875 1.390625 -3.203125 1.390625q-0.90625 0 -1.765625 -0.375q-0.859375 -0.375 -1.359375 -1.140625l-0.046875 0l0 4.984375l-1.578125 0l0 -13.34375l1.578125 0l0 1.3125l0.046875 0q0.375 -0.75 1.171875 -1.140625q0.8125 -0.390625 1.90625 -0.390625zm-3.171875 5.03125q0 1.671875 0.8125 2.671875q0.8125 0.984375 2.234375 0.984375q1.375 0 2.125 -0.984375q0.75 -0.984375 0.75 -2.75q0 -1.546875 -0.796875 -2.546875q-0.796875 -1.015625 -2.1875 -1.015625q-1.40625 0 -2.171875 1.015625q-0.765625 1.015625 -0.765625 2.625zm13.480804 -5.03125q2.078125 0 3.21875 1.5q1.15625 1.484375 1.15625 3.828125l0 0.1875l-7.234375 0l0 0.109375q0 1.390625 0.796875 2.234375q0.8125 0.828125 2.21875 0.828125q1.046875 0 1.671875 -0.484375q0.625 -0.5 0.828125 -1.40625l1.5625 0q-0.328125 1.609375 -1.40625 2.453125q-1.078125 0.84375 -2.71875 0.84375q-1.515625 0 -2.578125 -0.6875q-1.046875 -0.6875 -1.546875 -1.90625q-0.5 -1.234375 -0.5 -2.515625q0 -2.140625 1.28125 -3.5625q1.296875 -1.421875 3.25 -1.421875zm-2.859375 4.109375l5.546875 0q-0.078125 -1.171875 -0.859375 -1.9375q-0.765625 -0.78125 -1.9375 -0.78125q-1.09375 0 -1.875 0.734375q-0.765625 0.734375 -0.875 1.984375zm13.536102 -4.109375q1.75 0 2.53125 0.890625q0.796875 0.890625 0.796875 2.546875l0 6.421875l-1.59375 0l0 -6.59375q0 -0.8125 -0.53125 -1.34375q-0.515625 -0.53125 -1.4375 -0.53125q-1.3437805 0 -2.0937805 0.828125q-0.75 0.8125 -0.75 2.125l0 5.515625l-1.59375 0l0 -9.640625l1.5 0l0 1.53125l0.03125 0q0.53125 -0.90625 1.296875 -1.328125q0.78125 -0.421875 1.8437805 -0.421875zm7.906952 -2.671875l0 2.890625l1.921875 0l0 1.390625l-1.921875 0l0 6.046875q0 0.71875 0.484375 0.765625q0.484375 0.03125 1.0 0.03125l0.4375 0l0 1.40625l-1.296875 0q-1.3125 0 -1.765625 -0.453125q-0.4375 -0.46875 -0.4375 -1.5625l0 -6.234375l-1.65625 0l0 -1.390625l1.65625 0l0 -2.890625l1.578125 0zm14.699554 -0.78125l5.203125 13.3125l-1.953125 0l-1.453125 -4.015625l-5.640625 0l-1.5 4.015625l-1.8125 0l5.203125 -13.3125l1.953125 0zm-1.03125 1.59375l-2.25 6.21875l4.515625 0l-2.21875 -6.21875l-0.046875 0zm11.947693 1.859375q1.75 0 2.53125 0.890625q0.796875 0.890625 0.796875 2.546875l0 6.421875l-1.59375 0l0 -6.59375q0 -0.8125 -0.53125 -1.34375q-0.515625 -0.53125 -1.4375 -0.53125q-1.34375 0 -2.09375 0.828125q-0.75 0.8125 -0.75 2.125l0 5.515625l-1.59375 0l0 -9.640625l1.5 0l0 1.53125l0.03125 0q0.53125 -0.90625 1.296875 -1.328125q0.78125 -0.421875 1.84375 -0.421875zm7.391327 -3.453125l0 1.9375l-1.59375 0l0 -1.9375l1.59375 0zm0 3.671875l0 9.640625l-1.59375 0l0 -9.640625l1.59375 0zm7.1135864 -0.21875q1.046875 0 1.71875 0.421875q0.671875 0.421875 0.921875 1.21875q0.5 -0.78125 1.28125 -1.203125q0.796875 -0.4375 1.765625 -0.4375q1.625 0 2.40625 0.734375q0.78125 0.734375 0.78125 2.0l0 7.125l-1.578125 0l0 -6.390625q0 -1.046875 -0.453125 -1.5625q-0.4375 -0.515625 -1.421875 -0.515625q-1.1875 0 -1.859375 0.6875q-0.65625 0.6875 -0.65625 1.71875l0 6.0625l-1.59375 0l0 -6.390625q0 -1.046875 -0.4375 -1.5625q-0.4375 -0.515625 -1.359375 -0.515625q-0.765625 0 -1.34375 0.359375q-0.578125 0.359375 -0.90625 1.0q-0.328125 0.625 -0.328125 1.0625l0 6.046875l-1.59375 0l0 -9.640625l1.5 0l0 1.421875l0.03125 0q0.546875 -0.84375 1.3125 -1.234375q0.78125 -0.40625 1.8125 -0.40625zm15.211151 0q1.96875 0 2.78125 0.703125q0.828125 0.6875 0.828125 1.875q0 5.015625 0 5.5625q0 0.546875 0.5 0.546875q0.109375 0 0.234375 -0.03125q0.140625 -0.03125 0.25 -0.0625l0 1.234375q-0.21875 0.125 -0.5 0.1875q-0.28125 0.078125 -0.625 0.078125q-0.65625 0 -1.0 -0.375q-0.34375 -0.375 -0.34375 -1.125q-0.640625 0.75 -1.5 1.125q-0.84375 0.375 -1.90625 0.375q-1.484375 0 -2.34375 -0.703125q-0.84375 -0.71875 -0.84375 -2.015625q0 -1.296875 0.828125 -2.046875q0.828125 -0.765625 3.90625 -1.15625q1.03125 -0.140625 1.390625 -0.390625q0.375 -0.265625 0.375 -0.796875q0 -0.796875 -0.515625 -1.1875q-0.5 -0.40625 -1.625 -0.40625q-1.171875 0 -1.765625 0.453125q-0.59375 0.4375 -0.640625 1.375l-1.578125 0q0.078125 -1.609375 1.125 -2.40625q1.0625 -0.8125 2.96875 -0.8125zm-2.796875 7.265625q0 0.671875 0.484375 1.046875q0.5 0.375 1.390625 0.375q1.34375 0 2.140625 -0.65625q0.796875 -0.671875 0.796875 -1.5l0 -1.65625q-0.390625 0.28125 -1.03125 0.390625q-0.640625 0.09375 -1.703125 0.234375q-1.046875 0.15625 -1.5625 0.578125q-0.515625 0.421875 -0.515625 1.1875zm11.067322 -9.9375l0 2.890625l1.921875 0l0 1.390625l-1.921875 0l0 6.046875q0 0.71875 0.484375 0.765625q0.484375 0.03125 1.0 0.03125l0.4375 0l0 1.40625l-1.296875 0q-1.3125 0 -1.765625 -0.453125q-0.4375 -0.46875 -0.4375 -1.5625l0 -6.234375l-1.65625 0l0 -1.390625l1.65625 0l0 -2.890625l1.578125 0zm5.360016 -0.78125l0 1.9375l-1.59375 0l0 -1.9375l1.59375 0zm0 3.671875l0 9.640625l-1.59375 0l0 -9.640625l1.59375 0zm7.129181 -0.21875q1.75 0 2.53125 0.890625q0.796875 0.890625 0.796875 2.546875l0 6.421875l-1.59375 0l0 -6.59375q0 -0.8125 -0.53125 -1.34375q-0.515625 -0.53125 -1.4375 -0.53125q-1.34375 0 -2.09375 0.828125q-0.75 0.8125 -0.75 2.125l0 5.515625l-1.59375 0l0 -9.640625l1.5 0l0 1.53125l0.03125 0q0.53125 -0.90625 1.296875 -1.328125q0.78125 -0.421875 1.84375 -0.421875zm9.641357 0q1.0 0 1.734375 0.4375q0.75 0.4375 1.140625 1.15625l0.03125 0l0 -1.375l1.484375 0l0 8.921875q0 2.265625 -1.09375 3.453125q-1.09375 1.1875 -3.375 1.1875q-1.65625 0 -2.796875 -0.734375q-1.125 -0.734375 -1.203125 -2.109375l1.578125 0q0.046875 0.75 0.796875 1.15625q0.75 0.421875 1.703125 0.421875q1.40625 0 2.15625 -0.9375q0.75 -0.921875 0.75 -2.75l0 -0.609375l-0.046875 0q-0.375 0.796875 -1.1875 1.28125q-0.796875 0.46875 -1.828125 0.46875q-1.953125 0 -3.125 -1.34375q-1.171875 -1.359375 -1.171875 -3.53125q0 -2.21875 1.171875 -3.65625q1.171875 -1.4375 3.28125 -1.4375zm-2.78125 4.890625q0 1.71875 0.71875 2.703125q0.734375 0.984375 2.015625 0.984375q1.3125 0 2.078125 -1.015625q0.78125 -1.015625 0.78125 -2.71875q0 -1.546875 -0.71875 -2.5q-0.71875 -0.953125 -2.03125 -0.953125q-1.328125 0 -2.09375 0.953125q-0.75 0.953125 -0.75 2.546875z" fill-rule="nonzero"/><path fill="#000000" fill-opacity="0.0" d="m687.2441 147.05774l207.4331 0l0 32.314957l-207.4331 0z" fill-rule="evenodd"/><path fill="#000000" d="m744.5279 158.68837l0 0.859375l-3.984375 0l0 2.40625l3.5 0l0 0.859375l-3.5 0l0 3.484375l-1.015625 0l0 -7.609375l5.0 0zm3.2023315 1.96875q0.03125 0 0.046875 0q0.03125 0 0.078125 0l0 0.96875q-1.015625 0 -1.5 0.546875q-0.484375 0.53125 -0.484375 1.65625l0 2.46875l-0.90625 0l0 -5.515625l0.84375 0l0 1.171875l0.03125 0q0.3125 -0.65625 0.765625 -0.96875q0.46875 -0.328125 1.125 -0.328125zm2.809021 0q1.125 0 1.59375 0.40625q0.46875 0.40625 0.46875 1.078125q0 2.859375 0 3.171875q0 0.3125 0.28125 0.3125q0.0625 0 0.140625 -0.015625q0.078125 -0.015625 0.140625 -0.03125l0 0.703125q-0.125 0.0625 -0.296875 0.09375q-0.15625 0.046875 -0.34375 0.046875q-0.375 0 -0.578125 -0.203125q-0.203125 -0.21875 -0.203125 -0.640625q-0.359375 0.421875 -0.84375 0.640625q-0.484375 0.203125 -1.09375 0.203125q-0.84375 0 -1.328125 -0.390625q-0.484375 -0.40625 -0.484375 -1.15625q0 -0.734375 0.46875 -1.171875q0.46875 -0.4375 2.21875 -0.65625q0.59375 -0.078125 0.796875 -0.21875q0.21875 -0.15625 0.21875 -0.453125q0 -0.46875 -0.296875 -0.6875q-0.28125 -0.234375 -0.921875 -0.234375q-0.671875 0 -1.015625 0.265625q-0.328125 0.25 -0.359375 0.78125l-0.90625 0q0.046875 -0.90625 0.640625 -1.375q0.609375 -0.46875 1.703125 -0.46875zm-1.59375 4.15625q0 0.390625 0.28125 0.609375q0.28125 0.203125 0.78125 0.203125q0.765625 0 1.21875 -0.375q0.46875 -0.390625 0.46875 -0.859375l0 -0.9375q-0.234375 0.15625 -0.609375 0.21875q-0.359375 0.046875 -0.953125 0.140625q-0.609375 0.078125 -0.90625 0.328125q-0.28125 0.234375 -0.28125 0.671875zm7.707947 -4.15625q0.609375 0 0.984375 0.25q0.390625 0.25 0.53125 0.6875q0.28125 -0.4375 0.734375 -0.6875q0.453125 -0.25 1.0 -0.25q0.9375 0 1.375 0.421875q0.453125 0.421875 0.453125 1.140625l0 4.078125l-0.90625 0l0 -3.65625q0 -0.59375 -0.25 -0.890625q-0.25 -0.296875 -0.8125 -0.296875q-0.671875 0 -1.0625 0.40625q-0.375 0.390625 -0.375 0.984375l0 3.453125l-0.90625 0l0 -3.65625q0 -0.59375 -0.25 -0.890625q-0.25 -0.296875 -0.78125 -0.296875q-0.4375 0 -0.765625 0.21875q-0.328125 0.203125 -0.515625 0.5625q-0.1875 0.359375 -0.1875 0.609375l0 3.453125l-0.90625 0l0 -5.515625l0.84375 0l0 0.8125l0.03125 0q0.3125 -0.46875 0.75 -0.703125q0.4375 -0.234375 1.015625 -0.234375zm8.730713 0q1.1875 0 1.84375 0.859375q0.65625 0.859375 0.65625 2.1875l0 0.109375l-4.125 0l0 0.0625q0 0.796875 0.453125 1.28125q0.46875 0.46875 1.265625 0.46875q0.59375 0 0.953125 -0.28125q0.359375 -0.28125 0.46875 -0.796875l0.890625 0q-0.171875 0.921875 -0.796875 1.40625q-0.625 0.46875 -1.546875 0.46875q-0.875 0 -1.484375 -0.390625q-0.59375 -0.390625 -0.875 -1.09375q-0.28125 -0.703125 -0.28125 -1.421875q0 -1.21875 0.734375 -2.03125q0.734375 -0.828125 1.84375 -0.828125zm-1.625 2.359375l3.15625 0q-0.03125 -0.671875 -0.484375 -1.109375q-0.4375 -0.453125 -1.109375 -0.453125q-0.625 0 -1.0625 0.421875q-0.4375 0.421875 -0.5 1.140625zm6.895447 -2.359375q1.109375 0 1.640625 0.4375q0.546875 0.4375 0.609375 1.296875l-0.90625 0l0 -0.015625q-0.046875 -0.4375 -0.390625 -0.671875q-0.34375 -0.25 -0.890625 -0.25q-0.546875 0 -0.859375 0.1875q-0.3125 0.1875 -0.3125 0.515625q0 0.3125 0.28125 0.5q0.28125 0.1875 0.84375 0.3125l0.84375 0.1875q0.796875 0.1875 1.21875 0.546875q0.421875 0.359375 0.421875 0.984375q0 0.8125 -0.640625 1.28125q-0.625 0.453125 -1.703125 0.453125q-1.0625 0 -1.6875 -0.46875q-0.609375 -0.46875 -0.65625 -1.390625l0.90625 0q0.015625 0.515625 0.40625 0.796875q0.390625 0.265625 1.078125 0.265625q0.65625 0 0.984375 -0.203125q0.34375 -0.21875 0.34375 -0.625q0 -0.359375 -0.34375 -0.578125q-0.328125 -0.21875 -1.359375 -0.421875q-1.046875 -0.203125 -1.46875 -0.578125q-0.421875 -0.375 -0.421875 -0.984375q0 -0.734375 0.578125 -1.15625q0.59375 -0.421875 1.484375 -0.421875zm9.163757 -2.15625q1.265625 0 2.0 0.625q0.75 0.609375 0.796875 1.796875l-0.953125 0q-0.09375 -0.78125 -0.5625 -1.171875q-0.46875 -0.390625 -1.328125 -0.390625q-0.8125 0 -1.265625 0.34375q-0.4375 0.328125 -0.4375 0.953125q0 0.453125 0.375 0.734375q0.390625 0.28125 2.0625 0.625q1.21875 0.25 1.828125 0.765625q0.609375 0.515625 0.609375 1.421875q0 1.0625 -0.875 1.671875q-0.859375 0.609375 -2.109375 0.609375q-1.375 0 -2.25 -0.6875q-0.875 -0.703125 -0.890625 -2.0l0.96875 0q0 0.859375 0.609375 1.34375q0.625 0.484375 1.59375 0.484375q0.921875 0 1.421875 -0.359375q0.515625 -0.359375 0.515625 -1.03125q0 -0.53125 -0.46875 -0.859375q-0.453125 -0.328125 -1.671875 -0.5625q-1.625 -0.3125 -2.1875 -0.796875q-0.546875 -0.484375 -0.546875 -1.28125q0 -1.03125 0.78125 -1.625q0.78125 -0.609375 1.984375 -0.609375zm6.904724 2.15625q1.1875 0 1.859375 0.8125q0.6875 0.8125 0.6875 2.09375q0 1.28125 -0.6875 2.078125q-0.671875 0.78125 -1.828125 0.78125q-0.515625 0 -1.015625 -0.203125q-0.484375 -0.21875 -0.765625 -0.65625l-0.015625 0l0 2.84375l-0.90625 0l0 -7.625l0.90625 0l0 0.75l0.015625 0q0.21875 -0.421875 0.671875 -0.640625q0.453125 -0.234375 1.078125 -0.234375zm-1.796875 2.890625q0 0.953125 0.453125 1.515625q0.46875 0.5625 1.28125 0.5625q0.78125 0 1.203125 -0.5625q0.4375 -0.5625 0.4375 -1.5625q0 -0.890625 -0.453125 -1.46875q-0.453125 -0.578125 -1.25 -0.578125q-0.796875 0 -1.234375 0.59375q-0.4375 0.578125 -0.4375 1.5zm7.6917114 -2.890625q1.1875 0 1.84375 0.859375q0.65625 0.859375 0.65625 2.1875l0 0.109375l-4.125 0l0 0.0625q0 0.796875 0.453125 1.28125q0.46875 0.46875 1.265625 0.46875q0.59375 0 0.953125 -0.28125q0.359375 -0.28125 0.46875 -0.796875l0.890625 0q-0.171875 0.921875 -0.796875 1.40625q-0.625 0.46875 -1.546875 0.46875q-0.875 0 -1.484375 -0.390625q-0.59375 -0.390625 -0.875 -1.09375q-0.28125 -0.703125 -0.28125 -1.421875q0 -1.21875 0.734375 -2.03125q0.734375 -0.828125 1.84375 -0.828125zm-1.625 2.359375l3.15625 0q-0.03125 -0.671875 -0.484375 -1.109375q-0.4375 -0.453125 -1.109375 -0.453125q-0.625 0 -1.0625 0.421875q-0.4375 0.421875 -0.5 1.140625zm7.723572 -2.359375q1.0 0 1.453125 0.515625q0.453125 0.515625 0.453125 1.453125l0 3.671875l-0.90625 0l0 -3.765625q0 -0.46875 -0.3125 -0.765625q-0.296875 -0.3125 -0.828125 -0.3125q-0.75 0 -1.1875 0.484375q-0.421875 0.46875 -0.421875 1.21875l0 3.140625l-0.90625 0l0 -5.515625l0.84375 0l0 0.875l0.03125 0q0.296875 -0.515625 0.734375 -0.75q0.4375 -0.25 1.046875 -0.25zm4.5202637 -1.515625l0 1.640625l1.09375 0l0 0.8125l-1.09375 0l0 3.4375q0 0.421875 0.265625 0.453125q0.28125 0.015625 0.578125 0.015625l0.25 0l0 0.796875l-0.734375 0q-0.75 0 -1.015625 -0.265625q-0.25 -0.265625 -0.25 -0.890625l0 -3.546875l-0.9375 0l0 -0.8125l0.9375 0l0 -1.640625l0.90625 0zm8.598022 -0.453125q1.046875 0 1.65625 0.578125q0.625 0.5625 0.625 1.671875q0 1.125 -0.625 1.6875q-0.609375 0.5625 -1.59375 0.5625l-2.4375 0l0 3.109375l-1.015625 0l0 -7.609375l3.390625 0zm-0.28125 3.640625q0.71875 0 1.125 -0.328125q0.421875 -0.34375 0.421875 -1.0625q0 -0.703125 -0.40625 -1.046875q-0.40625 -0.34375 -1.203125 -0.34375l-2.03125 0l0 2.78125l2.09375 0zm5.586975 -1.671875q1.125 0 1.59375 0.40625q0.46875 0.40625 0.46875 1.078125q0 2.859375 0 3.171875q0 0.3125 0.28125 0.3125q0.0625 0 0.140625 -0.015625q0.078125 -0.015625 0.140625 -0.03125l0 0.703125q-0.125 0.0625 -0.296875 0.09375q-0.15625 0.046875 -0.34375 0.046875q-0.375 0 -0.578125 -0.203125q-0.203125 -0.21875 -0.203125 -0.640625q-0.359375 0.421875 -0.84375 0.640625q-0.484375 0.203125 -1.09375 0.203125q-0.84375 0 -1.328125 -0.390625q-0.484375 -0.40625 -0.484375 -1.15625q0 -0.734375 0.46875 -1.171875q0.46875 -0.4375 2.21875 -0.65625q0.59375 -0.078125 0.796875 -0.21875q0.21875 -0.15625 0.21875 -0.453125q0 -0.46875 -0.296875 -0.6875q-0.28125 -0.234375 -0.921875 -0.234375q-0.671875 0 -1.015625 0.265625q-0.328125 0.25 -0.359375 0.78125l-0.90625 0q0.046875 -0.90625 0.640625 -1.375q0.609375 -0.46875 1.703125 -0.46875zm-1.59375 4.15625q0 0.390625 0.28125 0.609375q0.28125 0.203125 0.78125 0.203125q0.765625 0 1.21875 -0.375q0.46875 -0.390625 0.46875 -0.859375l0 -0.9375q-0.234375 0.15625 -0.609375 0.21875q-0.359375 0.046875 -0.953125 0.140625q-0.609375 0.078125 -0.90625 0.328125q-0.28125 0.234375 -0.28125 0.671875zm5.973572 -4.03125l0 3.765625q0 0.46875 0.296875 0.78125q0.296875 0.296875 0.8125 0.296875q0.78125 0 1.203125 -0.46875q0.4375 -0.484375 0.4375 -1.21875l0 -3.15625l0.90625 0l0 5.515625l-0.859375 0l0 -0.875l-0.015625 0q-0.3125 0.53125 -0.765625 0.765625q-0.453125 0.234375 -1.03125 0.234375q-0.96875 0 -1.4375 -0.484375q-0.453125 -0.5 -0.453125 -1.484375l0 -3.671875l0.90625 0zm6.8483887 -0.125q1.109375 0 1.640625 0.4375q0.546875 0.4375 0.609375 1.296875l-0.90625 0l0 -0.015625q-0.046875 -0.4375 -0.390625 -0.671875q-0.34375 -0.25 -0.890625 -0.25q-0.546875 0 -0.859375 0.1875q-0.3125 0.1875 -0.3125 0.515625q0 0.3125 0.28125 0.5q0.28125 0.1875 0.84375 0.3125l0.84375 0.1875q0.796875 0.1875 1.21875 0.546875q0.421875 0.359375 0.421875 0.984375q0 0.8125 -0.640625 1.28125q-0.625 0.453125 -1.703125 0.453125q-1.0625 0 -1.6875 -0.46875q-0.609375 -0.46875 -0.65625 -1.390625l0.90625 0q0.015625 0.515625 0.40625 0.796875q0.390625 0.265625 1.078125 0.265625q0.65625 0 0.984375 -0.203125q0.34375 -0.21875 0.34375 -0.625q0 -0.359375 -0.34375 -0.578125q-0.328125 -0.21875 -1.359375 -0.421875q-1.046875 -0.203125 -1.46875 -0.578125q-0.421875 -0.375 -0.421875 -0.984375q0 -0.734375 0.578125 -1.15625q0.59375 -0.421875 1.484375 -0.421875zm5.78125 0q1.1875 0 1.84375 0.859375q0.65625 0.859375 0.65625 2.1875l0 0.109375l-4.125 0l0 0.0625q0 0.796875 0.453125 1.28125q0.46875 0.46875 1.265625 0.46875q0.59375 0 0.953125 -0.28125q0.359375 -0.28125 0.46875 -0.796875l0.890625 0q-0.171875 0.921875 -0.796875 1.40625q-0.625 0.46875 -1.546875 0.46875q-0.875 0 -1.484375 -0.390625q-0.59375 -0.390625 -0.875 -1.09375q-0.28125 -0.703125 -0.28125 -1.421875q0 -1.21875 0.734375 -2.03125q0.734375 -0.828125 1.84375 -0.828125zm-1.625 2.359375l3.15625 0q-0.03125 -0.671875 -0.484375 -1.109375q-0.4375 -0.453125 -1.109375 -0.453125q-0.625 0 -1.0625 0.421875q-0.4375 0.421875 -0.5 1.140625zm9.989197 -4.328125l0 7.609375l-0.90625 0l0 -0.75l-0.03125 0q-0.203125 0.4375 -0.671875 0.65625q-0.46875 0.21875 -1.078125 0.21875q-1.15625 0 -1.84375 -0.796875q-0.6875 -0.796875 -0.6875 -2.09375q0 -1.28125 0.65625 -2.078125q0.671875 -0.796875 1.84375 -0.796875q0.546875 0 1.03125 0.21875q0.484375 0.21875 0.75 0.640625l0.03125 0l0 -2.828125l0.90625 0zm-4.265625 4.90625q0 0.875 0.453125 1.453125q0.46875 0.578125 1.25 0.578125q0.796875 0 1.234375 -0.578125q0.453125 -0.578125 0.453125 -1.5q0 -0.9375 -0.453125 -1.515625q-0.453125 -0.578125 -1.296875 -0.578125q-0.78125 0 -1.21875 0.578125q-0.421875 0.5625 -0.421875 1.5625z" fill-rule="nonzero"/><path fill="#000000" fill-opacity="0.0" d="m321.35434 27.199474l250.92911 0l0 42.01575l-250.92911 0z" fill-rule="evenodd"/><path fill="#000000" d="m399.8758 40.806973l0 1.484375l-4.4375 0l0 11.828125l-1.765625 0l0 -11.828125l-4.453125 0l0 -1.484375l10.65625 0zm3.5890503 3.453125q2.1875 0 3.421875 1.40625q1.25 1.40625 1.25 3.640625q0 2.25 -1.28125 3.65625q-1.265625 1.390625 -3.390625 1.390625q-2.09375 0 -3.390625 -1.375q-1.296875 -1.375 -1.296875 -3.671875q0 -2.296875 1.265625 -3.671875q1.265625 -1.375 3.421875 -1.375zm-3.015625 5.046875q0 1.65625 0.84375 2.65625q0.859375 0.984375 2.171875 0.984375q1.296875 0 2.140625 -0.984375q0.859375 -1.0 0.859375 -2.65625q0 -1.640625 -0.84375 -2.640625q-0.84375 -1.015625 -2.171875 -1.015625q-1.28125 0 -2.140625 0.984375q-0.859375 0.984375 -0.859375 2.671875zm11.759644 -7.71875l0 2.890625l1.921875 0l0 1.390625l-1.921875 0l0 6.046875q0 0.71875 0.484375 0.765625q0.484375 0.03125 1.0 0.03125l0.4375 0l0 1.40625l-1.296875 0q-1.3125 0 -1.765625 -0.453125q-0.4375 -0.46875 -0.4375 -1.5625l0 -6.234375l-1.65625 0l0 -1.390625l1.65625 0l0 -2.890625l1.578125 0zm7.625641 2.671875q1.96875 0 2.78125 0.703125q0.828125 0.6875 0.828125 1.875q0 5.015625 0 5.5625q0 0.546875 0.5 0.546875q0.109375 0 0.234375 -0.03125q0.140625 -0.03125 0.25 -0.0625l0 1.234375q-0.21875 0.125 -0.5 0.1875q-0.28125 0.078125 -0.625 0.078125q-0.65625 0 -1.0 -0.375q-0.34375 -0.375 -0.34375 -1.125q-0.640625 0.75 -1.5 1.125q-0.84375 0.375 -1.90625 0.375q-1.484375 0 -2.34375 -0.703125q-0.84375 -0.71875 -0.84375 -2.015625q0 -1.296875 0.828125 -2.046875q0.828125 -0.765625 3.90625 -1.15625q1.03125 -0.140625 1.390625 -0.390625q0.375 -0.265625 0.375 -0.796875q0 -0.796875 -0.515625 -1.1875q-0.5 -0.40625 -1.625 -0.40625q-1.171875 0 -1.765625 0.453125q-0.59375 0.4375 -0.640625 1.375l-1.578125 0q0.078125 -1.609375 1.125 -2.40625q1.0625 -0.8125 2.96875 -0.8125zm-2.796875 7.265625q0 0.671875 0.484375 1.046875q0.5 0.375 1.390625 0.375q1.34375 0 2.140625 -0.65625q0.796875 -0.671875 0.796875 -1.5l0 -1.65625q-0.390625 0.28125 -1.03125 0.390625q-0.640625 0.09375 -1.703125 0.234375q-1.046875 0.15625 -1.5625 0.578125q-0.515625 0.421875 -0.515625 1.1875zm10.551697 -10.71875l0 13.3125l-1.59375 0l0 -13.3125l1.59375 0zm12.578125 0q3.03125 0 4.65625 1.609375q1.640625 1.59375 1.640625 4.734375q0 3.515625 -1.625 5.25q-1.609375 1.71875 -4.671875 1.71875l-4.671875 0l0 -13.3125l4.671875 0zm0.109375 11.8125q2.0 0 3.203125 -1.296875q1.21875 -1.296875 1.21875 -3.9375q0 -2.640625 -1.109375 -3.859375q-1.09375 -1.234375 -3.25 -1.234375l-3.078125 0l0 10.328125l3.015625 0zm9.68277 -8.140625l0 6.578125q0 0.8125 0.515625 1.359375q0.53125 0.53125 1.453125 0.53125q1.359375 0 2.09375 -0.828125q0.75 -0.84375 0.75 -2.140625l0 -5.5l1.59375 0l0 9.640625l-1.5 0l0 -1.53125l-0.03125 0q-0.53125 0.921875 -1.328125 1.34375q-0.796875 0.421875 -1.8125 0.421875q-1.6875 0 -2.515625 -0.875q-0.8125 -0.875 -0.8125 -2.578125l0 -6.421875l1.59375 0zm13.594482 -0.234375q0.046875 0 0.09375 0q0.046875 0 0.125 0.015625l0 1.671875q-1.796875 0 -2.65625 0.953125q-0.84375 0.9375 -0.84375 2.921875l0 4.3125l-1.578125 0l0 -9.640625l1.484375 0l0 2.03125l0.046875 0q0.546875 -1.15625 1.359375 -1.703125q0.828125 -0.5625 1.96875 -0.5625zm4.9066772 0.015625q1.96875 0 2.78125 0.703125q0.828125 0.6875 0.828125 1.875q0 5.015625 0 5.5625q0 0.546875 0.5 0.546875q0.109375 0 0.234375 -0.03125q0.140625 -0.03125 0.25 -0.0625l0 1.234375q-0.21875 0.125 -0.5 0.1875q-0.28125 0.078125 -0.625 0.078125q-0.65625 0 -1.0 -0.375q-0.34375 -0.375 -0.34375 -1.125q-0.640625 0.75 -1.5 1.125q-0.84375 0.375 -1.90625 0.375q-1.484375 0 -2.34375 -0.703125q-0.84375 -0.71875 -0.84375 -2.015625q0 -1.296875 0.828125 -2.046875q0.828125 -0.765625 3.90625 -1.15625q1.03125 -0.140625 1.390625 -0.390625q0.375 -0.265625 0.375 -0.796875q0 -0.796875 -0.515625 -1.1875q-0.5 -0.40625 -1.625 -0.40625q-1.171875 0 -1.765625 0.453125q-0.59375 0.4375 -0.640625 1.375l-1.578125 0q0.078125 -1.609375 1.125 -2.40625q1.0625 -0.8125 2.96875 -0.8125zm-2.796875 7.265625q0 0.671875 0.484375 1.046875q0.5 0.375 1.390625 0.375q1.34375 0 2.140625 -0.65625q0.796875 -0.671875 0.796875 -1.5l0 -1.65625q-0.390625 0.28125 -1.03125 0.390625q-0.640625 0.09375 -1.703125 0.234375q-1.046875 0.15625 -1.5625 0.578125q-0.515625 0.421875 -0.515625 1.1875zm11.067322 -9.9375l0 2.890625l1.921875 0l0 1.390625l-1.921875 0l0 6.046875q0 0.71875 0.484375 0.765625q0.484375 0.03125 1.0 0.03125l0.4375 0l0 1.40625l-1.296875 0q-1.3125 0 -1.765625 -0.453125q-0.4375 -0.46875 -0.4375 -1.5625l0 -6.234375l-1.65625 0l0 -1.390625l1.65625 0l0 -2.890625l1.578125 0zm5.360016 -0.78125l0 1.9375l-1.59375 0l0 -1.9375l1.59375 0zm0 3.671875l0 9.640625l-1.59375 0l0 -9.640625l1.59375 0zm6.629181 -0.21875q2.1875 0 3.421875 1.40625q1.25 1.40625 1.25 3.640625q0 2.25 -1.28125 3.65625q-1.265625 1.390625 -3.390625 1.390625q-2.09375 0 -3.390625 -1.375q-1.296875 -1.375 -1.296875 -3.671875q0 -2.296875 1.265625 -3.671875q1.265625 -1.375 3.421875 -1.375zm-3.015625 5.046875q0 1.65625 0.84375 2.65625q0.859375 0.984375 2.171875 0.984375q1.296875 0 2.140625 -0.984375q0.859375 -1.0 0.859375 -2.65625q0 -1.640625 -0.84375 -2.640625q-0.84375 -1.015625 -2.171875 -1.015625q-1.28125 0 -2.140625 0.984375q-0.859375 0.984375 -0.859375 2.671875zm14.228394 -5.046875q1.75 0 2.53125 0.890625q0.796875 0.890625 0.796875 2.546875l0 6.421875l-1.59375 0l0 -6.59375q0 -0.8125 -0.53125 -1.34375q-0.515625 -0.53125 -1.4375 -0.53125q-1.34375 0 -2.09375 0.828125q-0.75 0.8125 -0.75 2.125l0 5.515625l-1.59375 0l0 -9.640625l1.5 0l0 1.53125l0.03125 0q0.53125 -0.90625 1.296875 -1.328125q0.78125 -0.421875 1.84375 -0.421875z" fill-rule="nonzero"/><path fill="#d0e0e3" d="m-1.0393701 45.545933l384.0 0l0 5.322834l-384.0 0z" fill-rule="evenodd"/><path fill="#d0e0e3" d="m510.67715 45.545933l352.28348 0l0 5.322834l-352.28348 0z" fill-rule="evenodd"/><path fill="#d0e0e3" d="m-1.0393701 30.427822l8.0 0l0 35.559055l-8.0 0z" fill-rule="evenodd"/><path fill="#d0e0e3" d="m854.96063 30.427822l8.0 0l0 35.559055l-8.0 0z" fill-rule="evenodd"/><path fill="#fff2cc" d="m-1.0393701 160.5538l246.26772 0l0 5.3228455l-246.26772 0z" fill-rule="evenodd"/><path fill="#fff2cc" d="m-1.0393701 145.4357l8.0 0l0 35.55905l-8.0 0z" fill-rule="evenodd"/><path fill="#fff2cc" d="m463.3596 160.36482l246.26773 0l0 5.3228455l-246.26773 0z" fill-rule="evenodd"/><path fill="#fff2cc" d="m710.96063 145.4357l8.0 0l0 35.55905l-8.0 0z" fill-rule="evenodd"/><path fill="#f4cccc" d="m719.09186 145.4357l8.0 0l0 35.55905l-8.0 0z" fill-rule="evenodd"/><path fill="#f4cccc" d="m854.96063 145.4357l8.0 0l0 35.55905l-8.0 0z" fill-rule="evenodd"/><path fill="#f4cccc" d="m727.09186 160.5538l8.0 0l0 5.3228455l-8.0 0z" fill-rule="evenodd"/><path fill="#f4cccc" d="m846.96063 160.5538l8.0 0l0 5.3228455l-8.0 0z" fill-rule="evenodd"/><path fill="#000000" fill-opacity="0.0" d="m321.35434 0l250.92911 0l0 42.015747l-250.92911 0z" fill-rule="evenodd"/><path fill="#000000" d="m344.319 13.685623l0 13.234375l-1.578125 0l0 -9.46875l-3.4375 0l0 -1.28125l0.046875 0q1.6875 0 2.59375 -0.59375q0.921875 -0.609375 1.15625 -1.890625l1.21875 0zm8.828857 0q1.890625 0 2.9375 0.921875q1.0625 0.921875 1.0625 2.453125q0 0.859375 -0.46875 1.59375q-0.453125 0.734375 -1.34375 1.15625q1.15625 0.359375 1.75 1.203125q0.59375 0.84375 0.59375 2.09375q0 1.8125 -1.234375 2.9375q-1.234375 1.109375 -3.15625 1.109375q-2.03125 0 -3.265625 -1.0625q-1.21875 -1.078125 -1.21875 -2.984375q0 -1.171875 0.59375 -2.03125q0.609375 -0.875 1.71875 -1.265625q-0.875 -0.375 -1.359375 -1.125q-0.484375 -0.75 -0.484375 -1.625q0 -1.5 1.109375 -2.4375q1.125 -0.9375 2.765625 -0.9375zm-2.203125 3.4375q0 0.953125 0.625 1.546875q0.625 0.578125 1.71875 0.578125q1.0 0 1.59375 -0.5625q0.59375 -0.578125 0.59375 -1.5625q0 -0.96875 -0.59375 -1.5q-0.59375 -0.53125 -1.640625 -0.53125q-1.03125 0 -1.671875 0.578125q-0.625 0.5625 -0.625 1.453125zm-0.46875 6.0625q0 1.15625 0.78125 1.859375q0.78125 0.703125 2.03125 0.703125q1.171875 0 1.9375 -0.71875q0.765625 -0.734375 0.765625 -1.859375q0 -1.046875 -0.796875 -1.78125q-0.796875 -0.734375 -1.9375 -0.734375q-1.171875 0 -1.984375 0.703125q-0.796875 0.703125 -0.796875 1.828125zm13.141327 -9.5q1.109375 0 1.921875 0.375q0.8125 0.359375 1.375 1.09375q1.109375 1.421875 1.109375 5.265625q0 1.9375 -0.265625 3.234375q-0.265625 1.296875 -0.84375 2.03125q-0.546875 0.71875 -1.375 1.09375q-0.8125 0.375 -1.921875 0.375q-2.203125 0 -3.296875 -1.484375q-1.109375 -1.46875 -1.109375 -5.25q0 -3.796875 1.109375 -5.25q1.109375 -1.484375 3.296875 -1.484375zm-2.734375 6.71875q0 1.59375 0.171875 2.640625q0.1875 1.03125 0.53125 1.59375q0.703125 1.109375 2.03125 1.109375q1.46875 0 2.109375 -1.265625q0.3125 -0.65625 0.453125 -1.640625q0.15625 -1.0 0.15625 -2.375q0 -0.46875 -0.015625 -1.046875q0 -0.578125 -0.078125 -1.15625q-0.0625 -0.59375 -0.234375 -1.15625q-0.15625 -0.578125 -0.453125 -1.015625q-0.3125 -0.4375 -0.78125 -0.71875q-0.46875 -0.28125 -1.171875 -0.28125q-0.640625 0 -1.140625 0.265625q-0.5 0.265625 -0.859375 0.8125q-0.71875 1.078125 -0.71875 4.234375zm23.309021 -6.796875l0 1.484375l-6.984375 0l0 4.234375l6.125 0l0 1.484375l-6.125 0l0 6.109375l-1.765625 0l0 -13.3125l8.75 0zm5.6164246 3.4375q0.046875 0 0.09375 0q0.046875 0 0.125 0.015625l0 1.671875q-1.796875 0 -2.65625 0.953125q-0.84375 0.9375 -0.84375 2.921875l0 4.3125l-1.578125 0l0 -9.640625l1.484375 0l0 2.03125l0.046875 0q0.546875 -1.15625 1.359375 -1.703125q0.828125 -0.5625 1.96875 -0.5625zm4.9066772 0.015625q1.96875 0 2.78125 0.703125q0.828125 0.6875 0.828125 1.875q0 5.015625 0 5.5625q0 0.546875 0.5 0.546875q0.109375 0 0.234375 -0.03125q0.140625 -0.03125 0.25 -0.0625l0 1.234375q-0.21875 0.125 -0.5 0.1875q-0.28125 0.078125 -0.625 0.078125q-0.65625 0 -1.0 -0.375q-0.34375 -0.375 -0.34375 -1.125q-0.640625 0.75 -1.5 1.125q-0.84375 0.375 -1.90625 0.375q-1.484375 0 -2.34375 -0.703125q-0.84375 -0.71875 -0.84375 -2.015625q0 -1.296875 0.828125 -2.046875q0.828125 -0.765625 3.90625 -1.15625q1.03125 -0.140625 1.390625 -0.390625q0.375 -0.265625 0.375 -0.796875q0 -0.796875 -0.515625 -1.1875q-0.5 -0.40625 -1.625 -0.40625q-1.171875 0 -1.765625 0.453125q-0.59375 0.4375 -0.640625 1.375l-1.578125 0q0.078125 -1.609375 1.125 -2.40625q1.0625 -0.8125 2.96875 -0.8125zm-2.796875 7.265625q0 0.671875 0.484375 1.046875q0.5 0.375 1.390625 0.375q1.34375 0 2.140625 -0.65625q0.796875 -0.671875 0.796875 -1.5l0 -1.65625q-0.390625 0.28125 -1.03125 0.390625q-0.640625 0.09375 -1.703125 0.234375q-1.046875 0.15625 -1.5625 0.578125q-0.515625 0.421875 -0.515625 1.1875zm13.520447 -7.265625q1.046875 0 1.71875 0.421875q0.671875 0.421875 0.921875 1.21875q0.5 -0.78125 1.28125 -1.203125q0.796875 -0.4375 1.765625 -0.4375q1.625 0 2.40625 0.734375q0.78125 0.734375 0.78125 2.0l0 7.125l-1.578125 0l0 -6.390625q0 -1.046875 -0.453125 -1.5625q-0.4375 -0.515625 -1.421875 -0.515625q-1.1875 0 -1.859375 0.6875q-0.65625 0.6875 -0.65625 1.71875l0 6.0625l-1.59375 0l0 -6.390625q0 -1.046875 -0.4375 -1.5625q-0.4375 -0.515625 -1.359375 -0.515625q-0.765625 0 -1.34375 0.359375q-0.578125 0.359375 -0.90625 1.0q-0.328125 0.625 -0.328125 1.0625l0 6.046875l-1.59375 0l0 -9.640625l1.5 0l0 1.421875l0.03125 0q0.546875 -0.84375 1.3125 -1.234375q0.78125 -0.40625 1.8125 -0.40625zm15.273682 0q2.078125 0 3.21875 1.5q1.15625 1.484375 1.15625 3.828125l0 0.1875l-7.234375 0l0 0.109375q0 1.390625 0.796875 2.234375q0.8125 0.828125 2.21875 0.828125q1.046875 0 1.671875 -0.484375q0.625 -0.5 0.828125 -1.40625l1.5625 0q-0.328125 1.609375 -1.40625 2.453125q-1.078125 0.84375 -2.71875 0.84375q-1.515625 0 -2.578125 -0.6875q-1.046875 -0.6875 -1.546875 -1.90625q-0.5 -1.234375 -0.5 -2.515625q0 -2.140625 1.28125 -3.5625q1.296875 -1.421875 3.25 -1.421875zm-2.859375 4.109375l5.546875 0q-0.078125 -1.171875 -0.859375 -1.9375q-0.765625 -0.78125 -1.9375 -0.78125q-1.09375 0 -1.875 0.734375q-0.765625 0.734375 -0.875 1.984375zm12.082947 -4.109375q1.9375 0 2.890625 0.75q0.953125 0.75 1.03125 2.265625l-1.578125 0l0 -0.03125q-0.0625 -0.765625 -0.671875 -1.171875q-0.609375 -0.421875 -1.5625 -0.421875q-0.953125 0 -1.515625 0.328125q-0.546875 0.3125 -0.546875 0.90625q0 0.515625 0.484375 0.859375q0.5 0.328125 1.484375 0.546875l1.484375 0.328125q1.40625 0.3125 2.125 0.953125q0.734375 0.640625 0.734375 1.734375q0 1.421875 -1.109375 2.234375q-1.09375 0.8125 -2.984375 0.8125q-1.859375 0 -2.953125 -0.828125q-1.078125 -0.84375 -1.140625 -2.453125l1.59375 0q0.03125 0.90625 0.703125 1.390625q0.6875 0.484375 1.875 0.484375q1.15625 0 1.75 -0.359375q0.59375 -0.375 0.59375 -1.078125q0 -0.65625 -0.59375 -1.03125q-0.59375 -0.375 -2.40625 -0.734375q-1.828125 -0.359375 -2.578125 -1.015625q-0.734375 -0.65625 -0.734375 -1.734375q0 -1.265625 1.03125 -2.0q1.03125 -0.734375 2.59375 -0.734375zm20.40207 2.625l0 1.265625l-9.4062805 0l0 -1.265625l9.4062805 0zm0 3.765625l0 1.265625l-9.4062805 0l0 -1.265625l9.4062805 0zm12.722626 -9.765625l0 13.234375l-1.578125 0l0 -9.46875l-3.4375 0l0 -1.28125l0.046875 0q1.6875 0 2.59375 -0.59375q0.921875 -0.609375 1.15625 -1.890625l1.21875 0zm8.828827 0q1.890625 0 2.9375 0.921875q1.0625 0.921875 1.0625 2.453125q0 0.859375 -0.46875 1.59375q-0.453125 0.734375 -1.34375 1.15625q1.15625 0.359375 1.75 1.203125q0.59375 0.84375 0.59375 2.09375q0 1.8125 -1.234375 2.9375q-1.234375 1.109375 -3.15625 1.109375q-2.03125 0 -3.265625 -1.0625q-1.21875 -1.078125 -1.21875 -2.984375q0 -1.171875 0.59375 -2.03125q0.609375 -0.875 1.71875 -1.265625q-0.875 -0.375 -1.359375 -1.125q-0.484375 -0.75 -0.484375 -1.625q0 -1.5 1.109375 -2.4375q1.125 -0.9375 2.765625 -0.9375zm-2.203125 3.4375q0 0.953125 0.625 1.546875q0.625 0.578125 1.71875 0.578125q1.0 0 1.59375 -0.5625q0.59375 -0.578125 0.59375 -1.5625q0 -0.96875 -0.59375 -1.5q-0.59375 -0.53125 -1.640625 -0.53125q-1.03125 0 -1.671875 0.578125q-0.625 0.5625 -0.625 1.453125zm-0.46875 6.0625q0 1.15625 0.78125 1.859375q0.78125 0.703125 2.03125 0.703125q1.171875 0 1.9375 -0.71875q0.765625 -0.734375 0.765625 -1.859375q0 -1.046875 -0.796875 -1.78125q-0.796875 -0.734375 -1.9375 -0.734375q-1.171875 0 -1.984375 0.703125q-0.796875 0.703125 -0.796875 1.828125zm19.074646 -9.90625q2.21875 0 3.515625 1.078125q1.3125 1.078125 1.390625 3.140625l-1.671875 0q-0.15625 -1.359375 -1.0 -2.03125q-0.828125 -0.6875 -2.3125 -0.6875q-1.421875 0 -2.203125 0.59375q-0.78125 0.578125 -0.78125 1.671875q0 0.78125 0.65625 1.28125q0.671875 0.5 3.625 1.09375q2.125 0.4375 3.171875 1.34375q1.0625 0.90625 1.0625 2.5q0 1.859375 -1.515625 2.921875q-1.515625 1.046875 -3.6875 1.046875q-2.421875 0 -3.953125 -1.203125q-1.53125 -1.21875 -1.546875 -3.484375l1.6875 0q0.015625 1.515625 1.078125 2.359375q1.078125 0.84375 2.796875 0.84375q1.609375 0 2.484375 -0.625q0.890625 -0.625 0.890625 -1.796875q0 -0.953125 -0.8125 -1.515625q-0.8125 -0.578125 -2.9375 -1.0q-2.84375 -0.53125 -3.8125 -1.375q-0.953125 -0.859375 -0.953125 -2.25q0 -1.796875 1.359375 -2.84375q1.359375 -1.0625 3.46875 -1.0625zm11.353943 3.78125q2.078125 0 3.21875 1.5q1.15625 1.484375 1.15625 3.828125l0 0.1875l-7.234375 0l0 0.109375q0 1.390625 0.796875 2.234375q0.8125 0.828125 2.21875 0.828125q1.046875 0 1.671875 -0.484375q0.625 -0.5 0.828125 -1.40625l1.5625 0q-0.328125 1.609375 -1.40625 2.453125q-1.078125 0.84375 -2.71875 0.84375q-1.515625 0 -2.578125 -0.6875q-1.046875 -0.6875 -1.546875 -1.90625q-0.5 -1.234375 -0.5 -2.515625q0 -2.140625 1.28125 -3.5625q1.296875 -1.421875 3.25 -1.421875zm-2.859375 4.109375l5.546875 0q-0.078125 -1.171875 -0.859375 -1.9375q-0.765625 -0.78125 -1.9375 -0.78125q-1.09375 0 -1.875 0.734375q-0.765625 0.734375 -0.875 1.984375zm12.895447 -4.109375q1.765625 0 2.859375 0.84375q1.109375 0.828125 1.296875 2.46875l-1.625 0q-0.203125 -0.9375 -0.828125 -1.421875q-0.625 -0.5 -1.5625 -0.5q-1.484375 0 -2.25 0.984375q-0.765625 0.984375 -0.765625 2.78125q0 1.609375 0.75 2.578125q0.765625 0.953125 2.078125 0.953125q1.15625 0 1.8125 -0.625q0.671875 -0.625 0.828125 -1.734375l1.625 0q-0.265625 1.8125 -1.359375 2.796875q-1.09375 0.96875 -2.890625 0.96875q-2.109375 0 -3.3125 -1.328125q-1.203125 -1.328125 -1.203125 -3.609375q0 -2.359375 1.21875 -3.75q1.21875 -1.40625 3.328125 -1.40625zm10.161072 0q2.1875 0 3.421875 1.40625q1.25 1.40625 1.25 3.640625q0 2.25 -1.28125 3.65625q-1.265625 1.390625 -3.390625 1.390625q-2.09375 0 -3.390625 -1.375q-1.296875 -1.375 -1.296875 -3.671875q0 -2.296875 1.265625 -3.671875q1.265625 -1.375 3.421875 -1.375zm-3.015625 5.046875q0 1.65625 0.84375 2.65625q0.859375 0.984375 2.171875 0.984375q1.296875 0 2.140625 -0.984375q0.859375 -1.0 0.859375 -2.65625q0 -1.640625 -0.84375 -2.640625q-0.84375 -1.015625 -2.171875 -1.015625q-1.28125 0 -2.140625 0.984375q-0.859375 0.984375 -0.859375 2.671875zm14.228394 -5.046875q1.75 0 2.53125 0.890625q0.796875 0.890625 0.796875 2.546875l0 6.421875l-1.59375 0l0 -6.59375q0 -0.8125 -0.53125 -1.34375q-0.515625 -0.53125 -1.4375 -0.53125q-1.34375 0 -2.09375 0.828125q-0.75 0.8125 -0.75 2.125l0 5.515625l-1.59375 0l0 -9.640625l1.5 0l0 1.53125l0.03125 0q0.53125 -0.90625 1.296875 -1.328125q0.78125 -0.421875 1.84375 -0.421875zm14.328796 -3.453125l0 13.3125l-1.59375 0l0 -1.296875l-0.03125 0q-0.375 0.734375 -1.1875 1.140625q-0.8125 0.390625 -1.890625 0.390625q-2.015625 0 -3.234375 -1.40625q-1.203125 -1.40625 -1.203125 -3.671875q0 -2.234375 1.171875 -3.625q1.171875 -1.390625 3.21875 -1.390625q0.953125 0 1.796875 0.390625q0.859375 0.375 1.328125 1.109375l0.03125 0l0 -4.953125l1.59375 0zm-7.46875 8.5625q0 1.5625 0.8125 2.578125q0.8125 1.0 2.1875 1.0q1.390625 0 2.15625 -1.0q0.78125 -1.015625 0.78125 -2.640625q0 -1.640625 -0.796875 -2.640625q-0.78125 -1.015625 -2.265625 -1.015625q-1.359375 0 -2.125 1.0q-0.75 0.984375 -0.75 2.71875zm13.12146 -5.109375q1.9375 0 2.890625 0.75q0.953125 0.75 1.03125 2.265625l-1.578125 0l0 -0.03125q-0.0625 -0.765625 -0.671875 -1.171875q-0.609375 -0.421875 -1.5625 -0.421875q-0.953125 0 -1.515625 0.328125q-0.546875 0.3125 -0.546875 0.90625q0 0.515625 0.484375 0.859375q0.5 0.328125 1.484375 0.546875l1.484375 0.328125q1.40625 0.3125 2.125 0.953125q0.734375 0.640625 0.734375 1.734375q0 1.421875 -1.109375 2.234375q-1.09375 0.8125 -2.984375 0.8125q-1.859375 0 -2.953125 -0.828125q-1.078125 -0.84375 -1.140625 -2.453125l1.59375 0q0.03125 0.90625 0.703125 1.390625q0.6875 0.484375 1.875 0.484375q1.15625 0 1.75 -0.359375q0.59375 -0.375 0.59375 -1.078125q0 -0.65625 -0.59375 -1.03125q-0.59375 -0.375 -2.40625 -0.734375q-1.828125 -0.359375 -2.578125 -1.015625q-0.734375 -0.65625 -0.734375 -1.734375q0 -1.265625 1.03125 -2.0q1.03125 -0.734375 2.59375 -0.734375z" fill-rule="nonzero"/><path fill="#000000" fill-opacity="0.0" d="m232.29396 172.61942l250.92912 0l0 42.015762l-250.92912 0z" fill-rule="evenodd"/><path fill="#000000" d="m255.25865 186.30504l0 13.234375l-1.578125 0l0 -9.46875l-3.4375 0l0 -1.28125l0.046875 0q1.6875 0 2.59375 -0.59375q0.921875 -0.609375 1.15625 -1.890625l1.21875 0zm12.500717 0.234375l0 1.390625l-5.328125 0l-0.71875 3.8125l0.046875 0.03125q0.40625 -0.453125 1.046875 -0.6875q0.640625 -0.25 1.421875 -0.25q1.921875 0 3.078125 1.203125q1.171875 1.203125 1.171875 3.3125q0 1.90625 -1.28125 3.171875q-1.265625 1.25 -3.328125 1.25q-1.765625 0 -2.96875 -1.015625q-1.203125 -1.03125 -1.25 -2.765625l0 -0.015625l1.578125 0q0.078125 1.0625 0.859375 1.734375q0.78125 0.65625 1.921875 0.65625q1.21875 0 2.0 -0.828125q0.796875 -0.84375 0.796875 -2.3125q0 -1.34375 -0.859375 -2.171875q-0.859375 -0.828125 -2.125 -0.828125q-0.703125 0 -1.328125 0.3125q-0.609375 0.3125 -1.125 0.9375l-1.359375 -0.078125l1.21875 -6.859375l6.53125 0zm6.797577 -0.234375q1.109375 0 1.921875 0.375q0.8125 0.359375 1.375 1.09375q1.109375 1.421875 1.109375 5.265625q0 1.9375 -0.265625 3.234375q-0.265625 1.296875 -0.84375 2.03125q-0.546875 0.71875 -1.375 1.09375q-0.8125 0.375 -1.921875 0.375q-2.203125 0 -3.296875 -1.484375q-1.109375 -1.46875 -1.109375 -5.25q0 -3.796875 1.109375 -5.25q1.109375 -1.484375 3.296875 -1.484375zm-2.734375 6.71875q0 1.59375 0.171875 2.640625q0.1875 1.03125 0.53125 1.59375q0.703125 1.109375 2.03125 1.109375q1.46875 0 2.109375 -1.265625q0.3125 -0.65625 0.453125 -1.640625q0.15625 -1.0 0.15625 -2.375q0 -0.46875 -0.015625 -1.046875q0 -0.578125 -0.078125 -1.15625q-0.0625 -0.59375 -0.234375 -1.15625q-0.15625 -0.578125 -0.453125 -1.015625q-0.3125 -0.4375 -0.78125 -0.71875q-0.46875 -0.28125 -1.171875 -0.28125q-0.640625 0 -1.140625 0.265625q-0.5 0.265625 -0.859375 0.8125q-0.71875 1.078125 -0.71875 4.234375zm23.309021 -6.796875l0 1.484375l-6.984375 0l0 4.234375l6.125 0l0 1.484375l-6.125 0l0 6.109375l-1.765625 0l0 -13.3125l8.75 0zm5.6164246 3.4375q0.046875 0 0.09375 0q0.046875 0 0.125 0.015625l0 1.671875q-1.796875 0 -2.65625 0.953125q-0.84375 0.9375 -0.84375 2.921875l0 4.3125l-1.578125 0l0 -9.640625l1.484375 0l0 2.03125l0.046875 0q0.546875 -1.15625 1.359375 -1.703125q0.828125 -0.5625 1.96875 -0.5625zm4.9066772 0.015625q1.96875 0 2.78125 0.703125q0.828125 0.6875 0.828125 1.875q0 5.015625 0 5.5625q0 0.546875 0.5 0.546875q0.109375 0 0.234375 -0.03125q0.140625 -0.03125 0.25 -0.0625l0 1.234375q-0.21875 0.125 -0.5 0.1875q-0.28125 0.078125 -0.625 0.078125q-0.65625 0 -1.0 -0.375q-0.34375 -0.375 -0.34375 -1.125q-0.640625 0.75 -1.5 1.125q-0.84375 0.375 -1.90625 0.375q-1.484375 0 -2.34375 -0.703125q-0.84375 -0.71875 -0.84375 -2.015625q0 -1.296875 0.828125 -2.046875q0.828125 -0.765625 3.90625 -1.15625q1.03125 -0.140625 1.390625 -0.390625q0.375 -0.265625 0.375 -0.796875q0 -0.796875 -0.515625 -1.1875q-0.5 -0.40625 -1.625 -0.40625q-1.171875 0 -1.765625 0.453125q-0.59375 0.4375 -0.640625 1.375l-1.578125 0q0.078125 -1.609375 1.125 -2.40625q1.0625 -0.8125 2.96875 -0.8125zm-2.796875 7.265625q0 0.671875 0.484375 1.046875q0.5 0.375 1.390625 0.375q1.34375 0 2.140625 -0.65625q0.796875 -0.671875 0.796875 -1.5l0 -1.65625q-0.390625 0.28125 -1.03125 0.390625q-0.640625 0.09375 -1.703125 0.234375q-1.046875 0.15625 -1.5625 0.578125q-0.515625 0.421875 -0.515625 1.1875zm13.520447 -7.265625q1.046875 0 1.71875 0.421875q0.671875 0.421875 0.921875 1.21875q0.5 -0.78125 1.28125 -1.203125q0.796875 -0.4375 1.765625 -0.4375q1.625 0 2.40625 0.734375q0.78125 0.734375 0.78125 2.0l0 7.125l-1.578125 0l0 -6.390625q0 -1.046875 -0.453125 -1.5625q-0.4375 -0.515625 -1.421875 -0.515625q-1.1875 0 -1.859375 0.6875q-0.65625 0.6875 -0.65625 1.71875l0 6.0625l-1.59375 0l0 -6.390625q0 -1.046875 -0.4375 -1.5625q-0.4375 -0.515625 -1.359375 -0.515625q-0.765625 0 -1.34375 0.359375q-0.578125 0.359375 -0.90625 1.0q-0.328125 0.625 -0.328125 1.0625l0 6.046875l-1.59375 0l0 -9.640625l1.5 0l0 1.421875l0.03125 0q0.546875 -0.84375 1.3125 -1.234375q0.78125 -0.40625 1.8125 -0.40625zm15.273682 0q2.078125 0 3.21875 1.5q1.15625 1.484375 1.15625 3.828125l0 0.1875l-7.234375 0l0 0.109375q0 1.390625 0.796875 2.234375q0.8125 0.828125 2.21875 0.828125q1.046875 0 1.671875 -0.484375q0.625 -0.5 0.828125 -1.40625l1.5625 0q-0.328125 1.609375 -1.40625 2.453125q-1.078125 0.84375 -2.71875 0.84375q-1.515625 0 -2.578125 -0.6875q-1.046875 -0.6875 -1.546875 -1.90625q-0.5 -1.234375 -0.5 -2.515625q0 -2.140625 1.28125 -3.5625q1.296875 -1.421875 3.25 -1.421875zm-2.859375 4.109375l5.546875 0q-0.078125 -1.171875 -0.859375 -1.9375q-0.765625 -0.78125 -1.9375 -0.78125q-1.09375 0 -1.875 0.734375q-0.765625 0.734375 -0.875 1.984375zm12.082947 -4.109375q1.9375 0 2.890625 0.75q0.953125 0.75 1.03125 2.265625l-1.578125 0l0 -0.03125q-0.0625 -0.765625 -0.671875 -1.171875q-0.609375 -0.421875 -1.5625 -0.421875q-0.953125 0 -1.515625 0.328125q-0.546875 0.3125 -0.546875 0.90625q0 0.515625 0.484375 0.859375q0.5 0.328125 1.484375 0.546875l1.484375 0.328125q1.40625 0.3125 2.125 0.953125q0.734375 0.640625 0.734375 1.734375q0 1.421875 -1.109375 2.234375q-1.09375 0.8125 -2.984375 0.8125q-1.859375 0 -2.953125 -0.828125q-1.078125 -0.84375 -1.140625 -2.453125l1.59375 0q0.03125 0.90625 0.703125 1.390625q0.6875 0.484375 1.875 0.484375q1.15625 0 1.75 -0.359375q0.59375 -0.375 0.59375 -1.078125q0 -0.65625 -0.59375 -1.03125q-0.59375 -0.375 -2.40625 -0.734375q-1.828125 -0.359375 -2.578125 -1.015625q-0.734375 -0.65625 -0.734375 -1.734375q0 -1.265625 1.03125 -2.0q1.03125 -0.734375 2.59375 -0.734375zm20.40207 2.625l0 1.265625l-9.4062805 0l0 -1.265625l9.4062805 0zm0 3.765625l0 1.265625l-9.4062805 0l0 -1.265625l9.4062805 0zm12.722626 -9.765625l0 13.234375l-1.578125 0l0 -9.46875l-3.4375 0l0 -1.28125l0.046875 0q1.6875 0 2.59375 -0.59375q0.921875 -0.609375 1.15625 -1.890625l1.21875 0zm12.500702 0.234375l0 1.390625l-5.328125 0l-0.71875 3.8125l0.046875 0.03125q0.40625 -0.453125 1.046875 -0.6875q0.640625 -0.25 1.421875 -0.25q1.921875 0 3.078125 1.203125q1.171875 1.203125 1.171875 3.3125q0 1.90625 -1.28125 3.171875q-1.265625 1.25 -3.328125 1.25q-1.765625 0 -2.96875 -1.015625q-1.203125 -1.03125 -1.25 -2.765625l0 -0.015625l1.578125 0q0.078125 1.0625 0.859375 1.734375q0.78125 0.65625 1.921875 0.65625q1.21875 0 2.0 -0.828125q0.796875 -0.84375 0.796875 -2.3125q0 -1.34375 -0.859375 -2.171875q-0.859375 -0.828125 -2.125 -0.828125q-0.703125 0 -1.328125 0.3125q-0.609375 0.3125 -1.125 0.9375l-1.359375 -0.078125l1.21875 -6.859375l6.53125 0zm12.730896 -0.640625q2.21875 0 3.515625 1.078125q1.3125 1.078125 1.390625 3.140625l-1.671875 0q-0.15625 -1.359375 -1.0 -2.03125q-0.828125 -0.6875 -2.3125 -0.6875q-1.421875 0 -2.203125 0.59375q-0.78125 0.578125 -0.78125 1.671875q0 0.78125 0.65625 1.28125q0.671875 0.5 3.625 1.09375q2.125 0.4375 3.171875 1.34375q1.0625 0.90625 1.0625 2.5q0 1.859375 -1.515625 2.921875q-1.515625 1.046875 -3.6875 1.046875q-2.421875 0 -3.953125 -1.203125q-1.53125 -1.21875 -1.546875 -3.484375l1.6875 0q0.015625 1.515625 1.078125 2.359375q1.078125 0.84375 2.796875 0.84375q1.609375 0 2.484375 -0.625q0.890625 -0.625 0.890625 -1.796875q0 -0.953125 -0.8125 -1.515625q-0.8125 -0.578125 -2.9375 -1.0q-2.84375 -0.53125 -3.8125 -1.375q-0.953125 -0.859375 -0.953125 -2.25q0 -1.796875 1.359375 -2.84375q1.359375 -1.0625 3.46875 -1.0625zm11.353943 3.78125q2.078125 0 3.21875 1.5q1.15625 1.484375 1.15625 3.828125l0 0.1875l-7.234375 0l0 0.109375q0 1.390625 0.796875 2.234375q0.8125 0.828125 2.21875 0.828125q1.046875 0 1.671875 -0.484375q0.625 -0.5 0.828125 -1.40625l1.5625 0q-0.328125 1.609375 -1.40625 2.453125q-1.078125 0.84375 -2.71875 0.84375q-1.515625 0 -2.578125 -0.6875q-1.046875 -0.6875 -1.546875 -1.90625q-0.5 -1.234375 -0.5 -2.515625q0 -2.140625 1.28125 -3.5625q1.296875 -1.421875 3.25 -1.421875zm-2.859375 4.109375l5.546875 0q-0.078125 -1.171875 -0.859375 -1.9375q-0.765625 -0.78125 -1.9375 -0.78125q-1.09375 0 -1.875 0.734375q-0.765625 0.734375 -0.875 1.984375zm12.895447 -4.109375q1.765625 0 2.859375 0.84375q1.109375 0.828125 1.296875 2.46875l-1.625 0q-0.203125 -0.9375 -0.828125 -1.421875q-0.625 -0.5 -1.5625 -0.5q-1.484375 0 -2.25 0.984375q-0.765625 0.984375 -0.765625 2.78125q0 1.609375 0.75 2.578125q0.765625 0.953125 2.078125 0.953125q1.15625 0 1.8125 -0.625q0.671875 -0.625 0.828125 -1.734375l1.625 0q-0.265625 1.8125 -1.359375 2.796875q-1.09375 0.96875 -2.890625 0.96875q-2.109375 0 -3.3125 -1.328125q-1.203125 -1.328125 -1.203125 -3.609375q0 -2.359375 1.21875 -3.75q1.21875 -1.40625 3.328125 -1.40625zm10.161072 0q2.1875 0 3.421875 1.40625q1.25 1.40625 1.25 3.640625q0 2.25 -1.28125 3.65625q-1.265625 1.390625 -3.390625 1.390625q-2.09375 0 -3.390625 -1.375q-1.296875 -1.375 -1.296875 -3.671875q0 -2.296875 1.265625 -3.671875q1.265625 -1.375 3.421875 -1.375zm-3.015625 5.046875q0 1.65625 0.84375 2.65625q0.859375 0.984375 2.171875 0.984375q1.296875 0 2.140625 -0.984375q0.859375 -1.0 0.859375 -2.65625q0 -1.640625 -0.84375 -2.640625q-0.84375 -1.015625 -2.171875 -1.015625q-1.28125 0 -2.140625 0.984375q-0.859375 0.984375 -0.859375 2.671875zm14.228394 -5.046875q1.75 0 2.53125 0.890625q0.796875 0.890625 0.796875 2.546875l0 6.421875l-1.59375 0l0 -6.59375q0 -0.8125 -0.53125 -1.34375q-0.515625 -0.53125 -1.4375 -0.53125q-1.34375 0 -2.09375 0.828125q-0.75 0.8125 -0.75 2.125l0 5.515625l-1.59375 0l0 -9.640625l1.5 0l0 1.53125l0.03125 0q0.53125 -0.90625 1.296875 -1.328125q0.78125 -0.421875 1.84375 -0.421875zm14.328827 -3.453125l0 13.3125l-1.59375 0l0 -1.296875l-0.03125 0q-0.375 0.734375 -1.1875 1.140625q-0.8125 0.390625 -1.890625 0.390625q-2.015625 0 -3.234375 -1.40625q-1.203125 -1.40625 -1.203125 -3.671875q0 -2.234375 1.171875 -3.625q1.171875 -1.390625 3.21875 -1.390625q0.953125 0 1.796875 0.390625q0.859375 0.375 1.328125 1.109375l0.03125 0l0 -4.953125l1.59375 0zm-7.46875 8.5625q0 1.5625 0.8125 2.578125q0.8125 1.0 2.1875 1.0q1.390625 0 2.15625 -1.0q0.78125 -1.015625 0.78125 -2.640625q0 -1.640625 -0.796875 -2.640625q-0.78125 -1.015625 -2.265625 -1.015625q-1.359375 0 -2.125 1.0q-0.75 0.984375 -0.75 2.71875zm13.121429 -5.109375q1.9375 0 2.890625 0.75q0.953125 0.75 1.03125 2.265625l-1.578125 0l0 -0.03125q-0.0625 -0.765625 -0.671875 -1.171875q-0.609375 -0.421875 -1.5625 -0.421875q-0.953125 0 -1.515625 0.328125q-0.546875 0.3125 -0.546875 0.90625q0 0.515625 0.484375 0.859375q0.5 0.328125 1.484375 0.546875l1.484375 0.328125q1.40625 0.3125 2.125 0.953125q0.734375 0.640625 0.734375 1.734375q0 1.421875 -1.109375 2.234375q-1.09375 0.8125 -2.984375 0.8125q-1.859375 0 -2.953125 -0.828125q-1.078125 -0.84375 -1.140625 -2.453125l1.59375 0q0.03125 0.90625 0.703125 1.390625q0.6875 0.484375 1.875 0.484375q1.15625 0 1.75 -0.359375q0.59375 -0.375 0.59375 -1.078125q0 -0.65625 -0.59375 -1.03125q-0.59375 -0.375 -2.40625 -0.734375q-1.828125 -0.359375 -2.578125 -1.015625q-0.734375 -0.65625 -0.734375 -1.734375q0 -1.265625 1.03125 -2.0q1.03125 -0.734375 2.59375 -0.734375z" fill-rule="nonzero"/><path fill="#000000" fill-opacity="0.0" d="m665.49603 176.03674l250.92914 0l0 32.314957l-250.92914 0z" fill-rule="evenodd"/><path fill="#000000" d="m737.3599 187.71425q1.078125 0 1.6875 0.546875q0.609375 0.53125 0.609375 1.484375q0 0.453125 -0.265625 0.859375q-0.265625 0.40625 -0.78125 0.640625l0 0.03125q0.671875 0.140625 1.015625 0.625q0.34375 0.484375 0.34375 1.203125q0 1.046875 -0.71875 1.671875q-0.71875 0.625 -1.875 0.625q-1.125 0 -1.828125 -0.625q-0.6875 -0.640625 -0.6875 -1.796875l0 -0.046875l0.90625 0q0.03125 0.8125 0.453125 1.25q0.4375 0.421875 1.15625 0.421875q0.703125 0 1.171875 -0.40625q0.46875 -0.421875 0.46875 -1.0625q0 -0.65625 -0.453125 -1.046875q-0.4375 -0.390625 -1.1875 -0.390625q-0.109375 0 -0.25 0.015625q-0.125 0 -0.265625 0.015625l0 -0.765625q0.125 0.015625 0.34375 0.015625q0.515625 0 0.828125 -0.171875q0.3125 -0.171875 0.484375 -0.4375q0.1875 -0.265625 0.1875 -0.640625q0 -0.5625 -0.375 -0.875q-0.359375 -0.328125 -0.96875 -0.328125q-0.65625 0 -1.046875 0.4375q-0.375 0.421875 -0.390625 1.203125l-0.90625 0q0.0625 -1.1875 0.671875 -1.8125q0.609375 -0.640625 1.671875 -0.640625zm6.0670776 0q0.640625 0 1.109375 0.21875q0.46875 0.203125 0.78125 0.625q0.640625 0.8125 0.640625 3.015625q0 1.09375 -0.15625 1.84375q-0.15625 0.734375 -0.484375 1.15625q-0.3125 0.40625 -0.78125 0.625q-0.46875 0.203125 -1.109375 0.203125q-1.25 0 -1.875 -0.84375q-0.625 -0.84375 -0.625 -2.984375q0 -2.171875 0.625 -3.015625q0.640625 -0.84375 1.875 -0.84375zm-1.546875 3.84375q0 0.90625 0.09375 1.5q0.109375 0.59375 0.296875 0.921875q0.40625 0.625 1.15625 0.625q0.84375 0 1.21875 -0.71875q0.171875 -0.375 0.25 -0.9375q0.09375 -0.5625 0.09375 -1.359375q0 -0.265625 -0.015625 -0.59375q0 -0.328125 -0.046875 -0.65625q-0.03125 -0.34375 -0.125 -0.671875q-0.09375 -0.328125 -0.265625 -0.578125q-0.171875 -0.25 -0.4375 -0.40625q-0.265625 -0.15625 -0.671875 -0.15625q-0.359375 0 -0.65625 0.15625q-0.28125 0.140625 -0.484375 0.453125q-0.40625 0.625 -0.40625 2.421875zm13.309021 -3.890625l0 0.859375l-3.984375 0l0 2.40625l3.5 0l0 0.859375l-3.5 0l0 3.484375l-1.015625 0l0 -7.609375l5.0 0zm3.2023926 1.96875q0.03125 0 0.046875 0q0.03125 0 0.078125 0l0 0.96875q-1.015625 0 -1.5 0.546875q-0.484375 0.53125 -0.484375 1.65625l0 2.46875l-0.90625 0l0 -5.515625l0.84375 0l0 1.171875l0.03125 0q0.3125 -0.65625 0.765625 -0.96875q0.46875 -0.328125 1.125 -0.328125zm2.809021 0q1.125 0 1.59375 0.40625q0.46875 0.40625 0.46875 1.078125q0 2.859375 0 3.171875q0 0.3125 0.28125 0.3125q0.0625 0 0.140625 -0.015625q0.078125 -0.015625 0.140625 -0.03125l0 0.703125q-0.125 0.0625 -0.296875 0.09375q-0.15625 0.046875 -0.34375 0.046875q-0.375 0 -0.578125 -0.203125q-0.203125 -0.21875 -0.203125 -0.640625q-0.359375 0.421875 -0.84375 0.640625q-0.484375 0.203125 -1.09375 0.203125q-0.84375 0 -1.328125 -0.390625q-0.484375 -0.40625 -0.484375 -1.15625q0 -0.734375 0.46875 -1.171875q0.46875 -0.4375 2.21875 -0.65625q0.59375 -0.078125 0.796875 -0.21875q0.21875 -0.15625 0.21875 -0.453125q0 -0.46875 -0.296875 -0.6875q-0.28125 -0.234375 -0.921875 -0.234375q-0.671875 0 -1.015625 0.265625q-0.328125 0.25 -0.359375 0.78125l-0.90625 0q0.046875 -0.90625 0.640625 -1.375q0.609375 -0.46875 1.703125 -0.46875zm-1.59375 4.15625q0 0.390625 0.28125 0.609375q0.28125 0.203125 0.78125 0.203125q0.765625 0 1.21875 -0.375q0.46875 -0.390625 0.46875 -0.859375l0 -0.9375q-0.234375 0.15625 -0.609375 0.21875q-0.359375 0.046875 -0.953125 0.140625q-0.609375 0.078125 -0.90625 0.328125q-0.28125 0.234375 -0.28125 0.671875zm7.707947 -4.15625q0.609375 0 0.984375 0.25q0.390625 0.25 0.53125 0.6875q0.28125 -0.4375 0.734375 -0.6875q0.453125 -0.25 1.0 -0.25q0.9375 0 1.375 0.421875q0.453125 0.421875 0.453125 1.140625l0 4.078125l-0.90625 0l0 -3.65625q0 -0.59375 -0.25 -0.890625q-0.25 -0.296875 -0.8125 -0.296875q-0.671875 0 -1.0625 0.40625q-0.375 0.390625 -0.375 0.984375l0 3.453125l-0.90625 0l0 -3.65625q0 -0.59375 -0.25 -0.890625q-0.25 -0.296875 -0.78125 -0.296875q-0.4375 0 -0.765625 0.21875q-0.328125 0.203125 -0.515625 0.5625q-0.1875 0.359375 -0.1875 0.609375l0 3.453125l-0.90625 0l0 -5.515625l0.84375 0l0 0.8125l0.03125 0q0.3125 -0.46875 0.75 -0.703125q0.4375 -0.234375 1.015625 -0.234375zm8.730713 0q1.1875 0 1.84375 0.859375q0.65625 0.859375 0.65625 2.1875l0 0.109375l-4.125 0l0 0.0625q0 0.796875 0.453125 1.28125q0.46875 0.46875 1.265625 0.46875q0.59375 0 0.953125 -0.28125q0.359375 -0.28125 0.46875 -0.796875l0.890625 0q-0.171875 0.921875 -0.796875 1.40625q-0.625 0.46875 -1.546875 0.46875q-0.875 0 -1.484375 -0.390625q-0.59375 -0.390625 -0.875 -1.09375q-0.28125 -0.703125 -0.28125 -1.421875q0 -1.21875 0.734375 -2.03125q0.734375 -0.828125 1.84375 -0.828125zm-1.625 2.359375l3.15625 0q-0.03125 -0.671875 -0.484375 -1.109375q-0.4375 -0.453125 -1.109375 -0.453125q-0.625 0 -1.0625 0.421875q-0.4375 0.421875 -0.5 1.140625zm6.895447 -2.359375q1.109375 0 1.640625 0.4375q0.546875 0.4375 0.609375 1.296875l-0.90625 0l0 -0.015625q-0.046875 -0.4375 -0.390625 -0.671875q-0.34375 -0.25 -0.890625 -0.25q-0.546875 0 -0.859375 0.1875q-0.3125 0.1875 -0.3125 0.515625q0 0.3125 0.28125 0.5q0.28125 0.1875 0.84375 0.3125l0.84375 0.1875q0.796875 0.1875 1.21875 0.546875q0.421875 0.359375 0.421875 0.984375q0 0.8125 -0.640625 1.28125q-0.625 0.453125 -1.703125 0.453125q-1.0625 0 -1.6875 -0.46875q-0.609375 -0.46875 -0.65625 -1.390625l0.90625 0q0.015625 0.515625 0.40625 0.796875q0.390625 0.265625 1.078125 0.265625q0.65625 0 0.984375 -0.203125q0.34375 -0.21875 0.34375 -0.625q0 -0.359375 -0.34375 -0.578125q-0.328125 -0.21875 -1.359375 -0.421875q-1.046875 -0.203125 -1.46875 -0.578125q-0.421875 -0.375 -0.421875 -0.984375q0 -0.734375 0.578125 -1.15625q0.59375 -0.421875 1.484375 -0.421875zm11.648132 1.5l0 0.734375l-5.359375 0l0 -0.734375l5.359375 0zm0 2.15625l0 0.71875l-5.359375 0l0 -0.71875l5.359375 0zm6.2929077 -5.578125q1.078125 0 1.6875 0.546875q0.609375 0.53125 0.609375 1.484375q0 0.453125 -0.265625 0.859375q-0.265625 0.40625 -0.78125 0.640625l0 0.03125q0.671875 0.140625 1.015625 0.625q0.34375 0.484375 0.34375 1.203125q0 1.046875 -0.71875 1.671875q-0.71875 0.625 -1.875 0.625q-1.125 0 -1.828125 -0.625q-0.6875 -0.640625 -0.6875 -1.796875l0 -0.046875l0.90625 0q0.03125 0.8125 0.453125 1.25q0.4375 0.421875 1.15625 0.421875q0.703125 0 1.171875 -0.40625q0.46875 -0.421875 0.46875 -1.0625q0 -0.65625 -0.453125 -1.046875q-0.4375 -0.390625 -1.1875 -0.390625q-0.109375 0 -0.25 0.015625q-0.125 0 -0.265625 0.015625l0 -0.765625q0.125 0.015625 0.34375 0.015625q0.515625 0 0.828125 -0.171875q0.3125 -0.171875 0.484375 -0.4375q0.1875 -0.265625 0.1875 -0.640625q0 -0.5625 -0.375 -0.875q-0.359375 -0.328125 -0.96875 -0.328125q-0.65625 0 -1.046875 0.4375q-0.375 0.421875 -0.390625 1.203125l-0.90625 0q0.0625 -1.1875 0.671875 -1.8125q0.609375 -0.640625 1.671875 -0.640625zm9.465271 -0.234375q1.265625 0 2.0 0.625q0.75 0.609375 0.796875 1.796875l-0.953125 0q-0.09375 -0.78125 -0.5625 -1.171875q-0.46875 -0.390625 -1.328125 -0.390625q-0.8125 0 -1.265625 0.34375q-0.4375 0.328125 -0.4375 0.953125q0 0.453125 0.375 0.734375q0.390625 0.28125 2.0625 0.625q1.21875 0.25 1.828125 0.765625q0.609375 0.515625 0.609375 1.421875q0 1.0625 -0.875 1.671875q-0.859375 0.609375 -2.109375 0.609375q-1.375 0 -2.25 -0.6875q-0.875 -0.703125 -0.890625 -2.0l0.96875 0q0 0.859375 0.609375 1.34375q0.625 0.484375 1.59375 0.484375q0.921875 0 1.421875 -0.359375q0.515625 -0.359375 0.515625 -1.03125q0 -0.53125 -0.46875 -0.859375q-0.453125 -0.328125 -1.671875 -0.5625q-1.625 -0.3125 -2.1875 -0.796875q-0.546875 -0.484375 -0.546875 -1.28125q0 -1.03125 0.78125 -1.625q0.78125 -0.609375 1.984375 -0.609375zm6.482849 2.15625q1.1875 0 1.84375 0.859375q0.65625 0.859375 0.65625 2.1875l0 0.109375l-4.125 0l0 0.0625q0 0.796875 0.453125 1.28125q0.46875 0.46875 1.265625 0.46875q0.59375 0 0.953125 -0.28125q0.359375 -0.28125 0.46875 -0.796875l0.890625 0q-0.171875 0.921875 -0.796875 1.40625q-0.625 0.46875 -1.546875 0.46875q-0.875 0 -1.484375 -0.390625q-0.59375 -0.390625 -0.875 -1.09375q-0.28125 -0.703125 -0.28125 -1.421875q0 -1.21875 0.734375 -2.03125q0.734375 -0.828125 1.84375 -0.828125zm-1.625 2.359375l3.15625 0q-0.03125 -0.671875 -0.484375 -1.109375q-0.4375 -0.453125 -1.109375 -0.453125q-0.625 0 -1.0625 0.421875q-0.4375 0.421875 -0.5 1.140625zm7.364197 -2.359375q1.0 0 1.625 0.484375q0.640625 0.484375 0.75 1.421875l-0.9375 0q-0.109375 -0.546875 -0.46875 -0.828125q-0.359375 -0.28125 -0.890625 -0.28125q-0.84375 0 -1.28125 0.578125q-0.4375 0.5625 -0.4375 1.578125q0 0.921875 0.421875 1.46875q0.4375 0.546875 1.1875 0.546875q0.65625 0 1.03125 -0.359375q0.390625 -0.359375 0.484375 -0.984375l0.921875 0q-0.15625 1.03125 -0.78125 1.59375q-0.625 0.546875 -1.65625 0.546875q-1.1875 0 -1.875 -0.75q-0.6875 -0.765625 -0.6875 -2.0625q0 -1.34375 0.6875 -2.140625q0.703125 -0.8125 1.90625 -0.8125zm5.801697 0q1.25 0 1.953125 0.8125q0.71875 0.8125 0.71875 2.078125q0 1.28125 -0.734375 2.078125q-0.71875 0.796875 -1.9375 0.796875q-1.203125 0 -1.9375 -0.78125q-0.734375 -0.78125 -0.734375 -2.09375q0 -1.3125 0.71875 -2.09375q0.71875 -0.796875 1.953125 -0.796875zm-1.71875 2.890625q0 0.953125 0.484375 1.515625q0.484375 0.5625 1.234375 0.5625q0.734375 0 1.21875 -0.5625q0.5 -0.578125 0.5 -1.515625q0 -0.9375 -0.484375 -1.515625q-0.484375 -0.578125 -1.25 -0.578125q-0.71875 0 -1.21875 0.578125q-0.484375 0.5625 -0.484375 1.515625zm8.119019 -2.890625q1.0 0 1.453125 0.515625q0.453125 0.515625 0.453125 1.453125l0 3.671875l-0.90625 0l0 -3.765625q0 -0.46875 -0.3125 -0.765625q-0.296875 -0.3125 -0.828125 -0.3125q-0.75 0 -1.1875 0.484375q-0.421875 0.46875 -0.421875 1.21875l0 3.140625l-0.90625 0l0 -5.515625l0.84375 0l0 0.875l0.03125 0q0.296875 -0.515625 0.734375 -0.75q0.4375 -0.25 1.046875 -0.25zm8.192139 -1.96875l0 7.609375l-0.90625 0l0 -0.75l-0.03125 0q-0.203125 0.4375 -0.671875 0.65625q-0.46875 0.21875 -1.078125 0.21875q-1.15625 0 -1.84375 -0.796875q-0.6875 -0.796875 -0.6875 -2.09375q0 -1.28125 0.65625 -2.078125q0.671875 -0.796875 1.84375 -0.796875q0.546875 0 1.03125 0.21875q0.484375 0.21875 0.75 0.640625l0.03125 0l0 -2.828125l0.90625 0zm-4.265625 4.90625q0 0.875 0.453125 1.453125q0.46875 0.578125 1.25 0.578125q0.796875 0 1.234375 -0.578125q0.453125 -0.578125 0.453125 -1.5q0 -0.9375 -0.453125 -1.515625q-0.453125 -0.578125 -1.296875 -0.578125q-0.78125 0 -1.21875 0.578125q-0.421875 0.5625 -0.421875 1.5625zm7.4885864 -2.9375q1.109375 0 1.640625 0.4375q0.546875 0.4375 0.609375 1.296875l-0.90625 0l0 -0.015625q-0.046875 -0.4375 -0.390625 -0.671875q-0.34375 -0.25 -0.890625 -0.25q-0.546875 0 -0.859375 0.1875q-0.3125 0.1875 -0.3125 0.515625q0 0.3125 0.28125 0.5q0.28125 0.1875 0.84375 0.3125l0.84375 0.1875q0.796875 0.1875 1.21875 0.546875q0.421875 0.359375 0.421875 0.984375q0 0.8125 -0.640625 1.28125q-0.625 0.453125 -1.703125 0.453125q-1.0625 0 -1.6875 -0.46875q-0.609375 -0.46875 -0.65625 -1.390625l0.90625 0q0.015625 0.515625 0.40625 0.796875q0.390625 0.265625 1.078125 0.265625q0.65625 0 0.984375 -0.203125q0.34375 -0.21875 0.34375 -0.625q0 -0.359375 -0.34375 -0.578125q-0.328125 -0.21875 -1.359375 -0.421875q-1.046875 -0.203125 -1.46875 -0.578125q-0.421875 -0.375 -0.421875 -0.984375q0 -0.734375 0.578125 -1.15625q0.59375 -0.421875 1.484375 -0.421875z" fill-rule="nonzero"/></g></svg>