<svg version="1.1" viewBox="0.0 0.0 329.9711286089239 251.88713910761155" fill="none" stroke="none" stroke-linecap="square" stroke-miterlimit="10" xmlns:xlink="http://www.w3.org/1999/xlink" xmlns="http://www.w3.org/2000/svg"><clipPath id="p.0"><path d="m0 0l329.97113 0l0 251.88715l-329.97113 0l0 -251.88715z" clip-rule="nonzero"/></clipPath><g clip-path="url(#p.0)"><path fill="#000000" fill-opacity="0.0" d="m0 0l329.97113 0l0 251.88715l-329.97113 0z" fill-rule="evenodd"/><path fill="#fff2cc" d="m283.979 209.68504l0 -207.62206l-218.99213 207.62206z" fill-rule="evenodd"/><path stroke="#000000" stroke-width="1.0" stroke-linejoin="round" stroke-linecap="butt" d="m283.979 209.68504l0 -207.62206l-218.99213 207.62206z" fill-rule="evenodd"/><path fill="#000000" fill-opacity="0.0" d="m0 193.68504l83.65354 0l0 64.62993l-83.65354 0z" fill-rule="evenodd"/><path fill="#000000" d="m28.498829 206.96442q-0.984375 1.859375 -1.515625 4.03125q-0.53125 2.15625 -0.53125 4.421875q0 2.296875 0.484375 4.421875q0.5 2.125 1.53125 4.15625l-2.1875 0q-1.21875 -1.984375 -1.84375 -4.140625q-0.625 -2.171875 -0.625 -4.25q0 -2.171875 0.625 -4.515625q0.640625 -2.359375 1.84375 -4.125l2.21875 0zm3.5984802 0.328125l0 13.3125l-2.65625 0l0 -13.3125l2.65625 0zm6.7629395 3.40625q2.28125 0 3.640625 1.40625q1.359375 1.390625 1.359375 3.6875q0 2.3125 -1.375 3.703125q-1.375 1.375 -3.625 1.375q-2.234375 0 -3.609375 -1.390625q-1.375 -1.390625 -1.375 -3.6875q0 -2.28125 1.34375 -3.6875q1.359375 -1.40625 3.640625 -1.40625zm-2.328125 5.09375q0 1.53125 0.625 2.3125q0.625 0.765625 1.703125 0.765625q1.140625 0 1.75 -0.796875q0.609375 -0.8125 0.609375 -2.28125q0 -1.4375 -0.59375 -2.265625q-0.59375 -0.828125 -1.78125 -0.828125q-1.0625 0 -1.6875 0.765625q-0.625 0.765625 -0.625 2.328125zm14.583481 -5.09375q1.84375 0 2.671875 0.9375q0.84375 0.9375 0.84375 2.9375l0 6.03125l-2.65625 0l0 -5.53125q0 -1.125 -0.390625 -1.703125q-0.390625 -0.578125 -1.296875 -0.578125q-1.109375 0 -1.59375 0.65625q-0.46875 0.65625 -0.46875 2.015625l0 5.140625l-2.640625 0l0 -9.640625l2.515625 0l0 1.34375l0.046875 0q0.484375 -0.78125 1.25 -1.1875q0.78125 -0.421875 1.71875 -0.421875zm8.574554 7.03125l0 2.921875q0 1.078125 -0.75 1.9375q-0.75 0.859375 -2.15625 1.109375l0 -1.328125q0.609375 -0.15625 0.96875 -0.640625q0.359375 -0.46875 0.359375 -1.0l0 -0.125l-1.34375 0l0 -2.875l2.921875 0z" fill-rule="nonzero"/><path fill="#000000" d="m31.755703 229.69254l0 13.3125l-2.65625 0l0 -13.3125l2.65625 0zm6.5129395 3.40625q2.140625 0 3.1875 0.703125q1.046875 0.703125 1.046875 1.984375l0 5.171875q0 0.578125 0.0625 1.171875q0.078125 0.578125 0.265625 0.875l-2.6875 0q-0.078125 -0.21875 -0.125 -0.453125q-0.046875 -0.234375 -0.0625 -0.46875q-0.5625 0.578125 -1.390625 0.890625q-0.8125 0.296875 -1.859375 0.296875q-1.484375 0 -2.390625 -0.75q-0.890625 -0.75 -0.890625 -2.140625q0 -1.359375 0.84375 -2.0625q0.84375 -0.71875 3.046875 -0.96875q1.546875 -0.140625 2.03125 -0.375q0.5 -0.234375 0.5 -0.8125q0 -0.640625 -0.375 -0.96875q-0.375 -0.328125 -1.328125 -0.328125q-0.828125 0 -1.265625 0.359375q-0.4375 0.34375 -0.5 1.109375l-2.65625 0q0.109375 -1.59375 1.296875 -2.40625q1.203125 -0.828125 3.25 -0.828125zm-2.1875 7.171875q0 0.5625 0.390625 0.890625q0.390625 0.328125 1.234375 0.328125q1.0625 0 1.59375 -0.546875q0.546875 -0.5625 0.546875 -1.625l0 -1.03125q-0.234375 0.1875 -0.625 0.28125q-0.390625 0.09375 -1.40625 0.25q-0.890625 0.109375 -1.3125 0.46875q-0.421875 0.34375 -0.421875 0.984375zm11.822144 -9.796875l0 2.890625l1.9375 0l0 1.765625l-1.9375 0l0 4.84375q0 0.59375 0.21875 0.828125q0.234375 0.21875 0.90625 0.21875q0.234375 0 0.4375 -0.015625q0.203125 -0.015625 0.375 -0.046875l0 2.0625q-0.328125 0.0625 -0.734375 0.078125q-0.390625 0.015625 -0.796875 0.015625q-1.71875 0 -2.390625 -0.578125q-0.65625 -0.59375 -0.65625 -1.65625l0 -5.75l-1.609375 0l0 -1.765625l1.609375 0l0 -2.890625l2.640625 0zm4.3023224 -1.109375q1.203125 1.984375 1.828125 4.15625q0.640625 2.15625 0.640625 4.265625q0 2.125 -0.640625 4.5q-0.640625 2.375 -1.828125 4.109375l-2.21875 0q1.015625 -1.9375 1.515625 -4.0625q0.515625 -2.125 0.515625 -4.359375q0 -2.328125 -0.5 -4.484375q-0.5 -2.15625 -1.515625 -4.125l2.203125 0z" fill-rule="nonzero"/><path fill="#000000" fill-opacity="0.0" d="m89.34646 75.08924l97.637794 0l0 42.015747l-97.637794 0z" fill-rule="evenodd"/><path fill="#000000" d="m106.8433 92.368614l2.03125 6.578125l0.046875 0l2.03125 -6.578125l2.625 0l-3.265625 9.640625l-2.953125 0l-3.296875 -9.640625l2.78125 0zm12.295364 -0.265625q2.140625 0 3.421875 1.484375q1.28125 1.46875 1.28125 3.75l-0.03125 0.484375l-6.953125 0q0.0625 1.25 0.65625 1.859375q0.59375 0.59375 1.703125 0.59375q0.71875 0 1.328125 -0.359375q0.609375 -0.375 0.78125 -0.890625l2.328125 0q-0.53125 1.640625 -1.65625 2.453125q-1.125 0.796875 -2.859375 0.796875q-2.234375 0 -3.59375 -1.40625q-1.34375 -1.421875 -1.34375 -3.671875q0 -2.15625 1.375 -3.625q1.390625 -1.46875 3.5625 -1.46875zm-2.28125 4.046875l4.3125 0q-0.1875 -1.0625 -0.6875 -1.546875q-0.5 -0.5 -1.4375 -0.5q-0.96875 0 -1.53125 0.546875q-0.5625 0.546875 -0.65625 1.5zm11.259651 -7.453125l0 13.3125l-2.6562576 0l0 -13.3125l2.6562576 0zm6.7629395 3.40625q2.28125 0 3.640625 1.40625q1.359375 1.390625 1.359375 3.6875q0 2.3125 -1.375 3.703125q-1.375 1.375 -3.625 1.375q-2.234375 0 -3.609375 -1.390625q-1.375 -1.390625 -1.375 -3.6875q0 -2.28125 1.34375 -3.6875q1.359375 -1.40625 3.640625 -1.40625zm-2.328125 5.09375q0 1.53125 0.625 2.3125q0.625 0.765625 1.703125 0.765625q1.140625 0 1.75 -0.796875q0.609375 -0.8125 0.609375 -2.28125q0 -1.4375 -0.59375 -2.265625q-0.59375 -0.828125 -1.78125 -0.828125q-1.0625 0 -1.6875 0.765625q-0.625 0.765625 -0.625 2.328125zm13.661606 -5.09375q1.875 0 3.15625 0.96875q1.28125 0.96875 1.390625 2.6875l-2.609375 0q-0.109375 -0.828125 -0.609375 -1.234375q-0.484375 -0.421875 -1.34375 -0.421875q-1.0625 0 -1.65625 0.875q-0.59375 0.875 -0.59375 2.265625q0 1.375 0.578125 2.203125q0.59375 0.828125 1.625 0.828125q0.875 0 1.421875 -0.5q0.546875 -0.5 0.6875 -1.46875l2.546875 0q-0.265625 1.921875 -1.5 2.953125q-1.21875 1.015625 -3.140625 1.015625q-2.15625 0 -3.515625 -1.375q-1.359375 -1.390625 -1.359375 -3.578125q0 -2.328125 1.328125 -3.765625q1.34375 -1.453125 3.59375 -1.453125zm8.822128 -3.40625l0 2.171875l-2.6562347 0l0 -2.171875l2.6562347 0zm0 3.671875l0 9.640625l-2.6562347 0l0 -9.640625l2.6562347 0zm5.4348145 -2.890625l0 2.890625l1.9375 0l0 1.765625l-1.9375 0l0 4.84375q0 0.59375 0.21875 0.828125q0.234375 0.21875 0.90625 0.21875q0.234375 0 0.4375 -0.015625q0.203125 -0.015625 0.375 -0.046875l0 2.0625q-0.328125 0.0625 -0.734375 0.078125q-0.390625 0.015625 -0.796875 0.015625q-1.71875 0 -2.390625 -0.578125q-0.65625 -0.59375 -0.65625 -1.65625l0 -5.75l-1.609375 0l0 -1.765625l1.609375 0l0 -2.890625l2.640625 0zm4.9273224 2.890625l2.1875 6.59375l0.046875 0l2.09375 -6.59375l2.75 0l-4.109375 11.03125q-0.359375 0.96875 -1.125 1.484375q-0.75 0.515625 -1.953125 0.515625q-0.5625 0 -0.96875 -0.03125q-0.390625 -0.015625 -0.8125 -0.0625l0 -2.171875q0.484375 0.046875 0.796875 0.0625q0.3125 0.03125 0.59375 0.03125q0.5625 0 0.859375 -0.359375q0.3125 -0.34375 0.3125 -0.859375q0 -0.140625 -0.015625 -0.265625q-0.015625 -0.140625 -0.09375 -0.328125l-3.40625 -9.046875l2.84375 0z" fill-rule="nonzero"/><path fill="#000000" fill-opacity="0.0" d="m148.75328 209.68504l83.65355 0l0 42.015747l-83.65355 0z" fill-rule="evenodd"/><path fill="#000000" d="m175.4942 223.29254l0 13.3125l-2.65625 0l0 -13.3125l2.65625 0zm6.7629395 3.40625q2.28125 0 3.640625 1.40625q1.359375 1.390625 1.359375 3.6875q0 2.3125 -1.375 3.703125q-1.375 1.375 -3.625 1.375q-2.234375 0 -3.609375 -1.390625q-1.375 -1.390625 -1.375 -3.6875q0 -2.28125 1.34375 -3.6875q1.359375 -1.40625 3.640625 -1.40625zm-2.328125 5.09375q0 1.53125 0.625 2.3125q0.625 0.765625 1.703125 0.765625q1.140625 0 1.75 -0.796875q0.609375 -0.8125 0.609375 -2.28125q0 -1.4375 -0.59375 -2.265625q-0.59375 -0.828125 -1.78125 -0.828125q-1.0625 0 -1.6875 0.765625q-0.625 0.765625 -0.625 2.328125zm14.583481 -5.09375q1.84375 0 2.671875 0.9375q0.84375 0.9375 0.84375 2.9375l0 6.03125l-2.65625 0l0 -5.53125q0 -1.125 -0.390625 -1.703125q-0.390625 -0.578125 -1.296875 -0.578125q-1.109375 0 -1.59375 0.65625q-0.46875 0.65625 -0.46875 2.015625l0 5.140625l-2.640625 0l0 -9.640625l2.515625 0l0 1.34375l0.046875 0q0.484375 -0.78125 1.25 -1.1875q0.78125 -0.421875 1.71875 -0.421875zm9.933929 -3.40625q1.921875 0 3.203125 1.140625q1.28125 1.140625 1.28125 2.9375q0 1.25 -0.609375 2.265625q-0.59375 1.0 -2.515625 2.21875q-1.34375 0.84375 -1.984375 1.40625q-0.640625 0.5625 -0.984375 1.0625l6.171875 0l0 2.28125l-9.59375 0q0 -1.296875 0.453125 -2.28125q0.46875 -1.0 1.328125 -1.78125q0.859375 -0.796875 3.28125 -2.421875q0.9375 -0.609375 1.375 -1.21875q0.4375 -0.609375 0.4375 -1.328125q0 -0.875 -0.546875 -1.4375q-0.53125 -0.578125 -1.421875 -0.578125q-0.984375 0 -1.515625 0.8125q-0.53125 0.796875 -0.5625 2.1875l-2.53125 0l0 -0.25q0 -2.265625 1.28125 -3.640625q1.296875 -1.375 3.453125 -1.375z" fill-rule="nonzero"/><path fill="#000000" fill-opacity="0.0" d="m260.09973 89.34908l83.653564 0l0 42.01574l-83.653564 0z" fill-rule="evenodd"/><path fill="#000000" d="m289.42776 102.95658l0 13.3125l-2.65625 0l0 -13.3125l2.65625 0zm6.5129395 3.40625q2.140625 0 3.1875 0.703125q1.046875 0.703125 1.046875 1.984375l0 5.171875q0 0.578125 0.0625 1.171875q0.078125 0.578125 0.265625 0.875l-2.6875 0q-0.078125 -0.21875 -0.125 -0.453125q-0.046875 -0.234375 -0.0625 -0.46875q-0.5625 0.578125 -1.390625 0.890625q-0.8125 0.296875 -1.859375 0.296875q-1.484375 0 -2.390625 -0.75q-0.890625 -0.75 -0.890625 -2.140625q0 -1.359375 0.84375 -2.0625q0.84375 -0.71875 3.046875 -0.96875q1.546875 -0.140625 2.03125 -0.375q0.5 -0.234375 0.5 -0.8125q0 -0.640625 -0.375 -0.96875q-0.375 -0.328125 -1.328125 -0.328125q-0.828125 0 -1.265625 0.359375q-0.4375 0.34375 -0.5 1.109375l-2.65625 0q0.109375 -1.59375 1.296875 -2.40625q1.203125 -0.828125 3.25 -0.828125zm-2.1875 7.171875q0 0.5625 0.390625 0.890625q0.390625 0.328125 1.234375 0.328125q1.0625 0 1.59375 -0.546875q0.546875 -0.5625 0.546875 -1.625l0 -1.03125q-0.234375 0.1875 -0.625 0.28125q-0.390625 0.09375 -1.40625 0.25q-0.890625 0.109375 -1.3125 0.46875q-0.421875 0.34375 -0.421875 0.984375zm11.822144 -9.796875l0 2.890625l1.9375 0l0 1.765625l-1.9375 0l0 4.84375q0 0.59375 0.21875 0.828125q0.234375 0.21875 0.90625 0.21875q0.234375 0 0.4375 -0.015625q0.203125 -0.015625 0.375 -0.046875l0 2.0625q-0.328125 0.0625 -0.734375 0.078125q-0.390625 0.015625 -0.796875 0.015625q-1.71875 0 -2.390625 -0.578125q-0.65625 -0.59375 -0.65625 -1.65625l0 -5.75l-1.609375 0l0 -1.765625l1.609375 0l0 -2.890625l2.640625 0zm7.630432 -0.78125q1.921875 0 3.203125 1.140625q1.28125 1.140625 1.28125 2.9375q0 1.25 -0.609375 2.265625q-0.59375 1.0 -2.515625 2.21875q-1.34375 0.84375 -1.984375 1.40625q-0.640625 0.5625 -0.984375 1.0625l6.171875 0l0 2.28125l-9.59375 0q0 -1.296875 0.453125 -2.28125q0.46875 -1.0 1.328125 -1.78125q0.859375 -0.796875 3.28125 -2.421875q0.9375 -0.609375 1.375 -1.21875q0.4375 -0.609375 0.4375 -1.328125q0 -0.875 -0.546875 -1.4375q-0.53125 -0.578125 -1.421875 -0.578125q-0.984375 0 -1.515625 0.8125q-0.53125 0.796875 -0.5625 2.1875l-2.53125 0l0 -0.25q0 -2.265625 1.28125 -3.640625q1.296875 -1.375 3.453125 -1.375z" fill-rule="nonzero"/><path fill="#000000" fill-opacity="0.0" d="m101.603676 176.41208c11.848297 3.9494324 16.039368 21.371689 16.039368 33.860886" fill-rule="evenodd"/><path stroke="#000000" stroke-width="1.0" stroke-linejoin="round" stroke-linecap="butt" d="m101.603676 176.41208c11.848297 3.9494324 16.039368 21.371689 16.039368 33.860886" fill-rule="evenodd"/><path fill="#000000" fill-opacity="0.0" d="m107.80315 162.41733l83.65355 0l0 33.92125l-83.65355 0z" fill-rule="evenodd"/><path fill="#000000" d="m120.835 174.37482q1.578125 0 2.390625 1.140625q0.828125 1.125 0.828125 3.1875q0 1.90625 -0.875 3.15625q-0.875 1.25 -2.421875 1.25q-1.109375 0 -1.84375 -0.609375q-0.734375 -0.625 -0.875 -1.71875l1.609375 0q0.09375 0.46875 0.40625 0.765625q0.3125 0.28125 0.71875 0.28125q0.6875 0 1.09375 -0.640625q0.421875 -0.65625 0.515625 -1.921875l-0.015625 -0.03125q-0.34375 0.484375 -0.8125 0.71875q-0.453125 0.21875 -1.078125 0.21875q-0.703125 0 -1.34375 -0.375q-0.640625 -0.375 -0.953125 -1.0q-0.296875 -0.640625 -0.296875 -1.359375q0 -1.3125 0.828125 -2.1875q0.828125 -0.875 2.125 -0.875zm-1.25 2.9375q0 0.671875 0.34375 1.125q0.359375 0.453125 0.9375 0.453125q0.609375 0 0.984375 -0.421875q0.375 -0.4375 0.375 -1.140625q0 -0.65625 -0.390625 -1.109375q-0.375 -0.453125 -0.96875 -0.453125q-0.546875 0 -0.921875 0.453125q-0.359375 0.4375 -0.359375 1.09375zm8.048828 -2.9375q1.4999924 0 2.2968674 1.09375q0.796875 1.09375 0.796875 3.234375q0 2.15625 -0.796875 3.28125q-0.78125 1.125 -2.2968674 1.125q-1.5 0 -2.296875 -1.109375q-0.78125 -1.125 -0.78125 -3.296875q0 -2.125 0.78125 -3.21875q0.78125 -1.109375 2.296875 -1.109375zm-1.375 4.34375q0 1.296875 0.171875 1.890625q0.1875 0.578125 0.484375 0.84375q0.296875 0.25 0.71875 0.25q0.6718674 0 1.0312424 -0.65625q0.359375 -0.671875 0.359375 -2.34375q0 -1.609375 -0.359375 -2.265625q-0.359375 -0.671875 -1.0468674 -0.671875q-0.640625 0 -1.0 0.640625q-0.359375 0.640625 -0.359375 2.3125zm8.9706955 0.203125l0 1.46875l-3.609375 0l0 -1.46875l3.609375 0zm2.9804688 -4.546875l0 3.21875l0.046875 0q0.265625 -0.453125 0.765625 -0.734375q0.5 -0.296875 1.0625 -0.296875q1.171875 0 1.703125 0.609375q0.546875 0.609375 0.546875 1.890625l0 3.875l-1.703125 0l0 -3.5625q0 -0.71875 -0.25 -1.09375q-0.25 -0.375 -0.84375 -0.375q-0.703125 0 -1.015625 0.421875q-0.3125 0.421875 -0.3125 1.296875l0 3.3125l-1.6875 0l0 -8.5625l1.6875 0zm8.285156 2.1875q1.375 0 2.203125 0.953125q0.828125 0.9375 0.828125 2.421875l-0.015625 0.3125l-4.484375 0q0.046875 0.796875 0.421875 1.1875q0.390625 0.390625 1.09375 0.390625q0.46875 0 0.859375 -0.234375q0.390625 -0.25 0.5 -0.578125l1.5 0q-0.34375 1.046875 -1.0625 1.578125q-0.71875 0.515625 -1.84375 0.515625q-1.4375 0 -2.3125 -0.90625q-0.859375 -0.90625 -0.859375 -2.359375q0 -1.390625 0.890625 -2.328125q0.890625 -0.953125 2.28125 -0.953125zm-1.46875 2.609375l2.78125 0q-0.125 -0.6875 -0.453125 -1.0q-0.3125 -0.328125 -0.921875 -0.328125q-0.609375 0 -0.984375 0.359375q-0.359375 0.34375 -0.421875 0.96875zm8.34375 -2.609375q1.375 0 2.046875 0.453125q0.671875 0.453125 0.671875 1.28125l0 3.328125q0 0.375 0.046875 0.75q0.046875 0.375 0.171875 0.5625l-1.734375 0q-0.046875 -0.140625 -0.078125 -0.28125q-0.03125 -0.15625 -0.046875 -0.3125q-0.359375 0.375 -0.890625 0.578125q-0.515625 0.1875 -1.1875 0.1875q-0.96875 0 -1.546875 -0.484375q-0.5625 -0.484375 -0.5625 -1.375q0 -0.875 0.53125 -1.328125q0.546875 -0.46875 1.96875 -0.625q0.984375 -0.09375 1.296875 -0.234375q0.328125 -0.15625 0.328125 -0.53125q0 -0.40625 -0.25 -0.609375q-0.234375 -0.21875 -0.84375 -0.21875q-0.53125 0 -0.8125 0.234375q-0.28125 0.21875 -0.328125 0.703125l-1.703125 0q0.0625 -1.015625 0.828125 -1.546875q0.78125 -0.53125 2.09375 -0.53125zm-1.40625 4.609375q0 0.375 0.25 0.59375q0.25 0.203125 0.796875 0.203125q0.671875 0 1.015625 -0.359375q0.359375 -0.359375 0.359375 -1.046875l0 -0.65625q-0.15625 0.125 -0.40625 0.1875q-0.25 0.046875 -0.890625 0.140625q-0.59375 0.078125 -0.859375 0.3125q-0.265625 0.21875 -0.265625 0.625zm11.5 -6.796875l0 8.5625l-1.625 0l0 -0.796875l-0.03125 0q-0.265625 0.484375 -0.75 0.734375q-0.484375 0.234375 -1.125 0.234375q-1.265625 0 -2.03125 -0.9375q-0.75 -0.9375 -0.75 -2.390625q0 -1.390625 0.734375 -2.296875q0.75 -0.921875 2.015625 -0.921875q0.578125 0 1.046875 0.234375q0.484375 0.234375 0.78125 0.6875l0.03125 0l0 -3.109375l1.703125 0zm-4.609375 5.453125q0 0.859375 0.390625 1.4375q0.40625 0.5625 1.109375 0.5625q0.703125 0 1.078125 -0.515625q0.375 -0.53125 0.375 -1.5q0 -0.90625 -0.375 -1.4375q-0.359375 -0.53125 -1.09375 -0.53125q-0.703125 0 -1.09375 0.53125q-0.390625 0.53125 -0.390625 1.453125zm7.642578 -5.453125l0 1.390625l-1.703125 0l0 -1.390625l1.703125 0zm0 2.359375l0 6.203125l-1.703125 0l0 -6.203125l1.703125 0zm4.890625 -0.171875q1.1875 0 1.71875 0.609375q0.546875 0.59375 0.546875 1.890625l0 3.875l-1.703125 0l0 -3.5625q0 -0.71875 -0.25 -1.09375q-0.25 -0.375 -0.84375 -0.375q-0.703125 0 -1.015625 0.421875q-0.3125 0.421875 -0.3125 1.296875l0 3.3125l-1.6875 0l0 -6.203125l1.609375 0l0 0.859375l0.03125 0q0.3125 -0.5 0.8125 -0.765625q0.5 -0.265625 1.09375 -0.265625zm6.0351562 0q0.671875 0 1.109375 0.265625q0.453125 0.25 0.734375 0.734375l0.03125 0l0 -0.828125l1.609375 0l0 5.859375q0 1.25 -0.796875 1.96875q-0.796875 0.71875 -2.40625 0.71875q-1.09375 0 -1.890625 -0.53125q-0.78125 -0.515625 -0.859375 -1.453125l1.6875 0q0.125 0.453125 0.453125 0.65625q0.328125 0.203125 0.828125 0.203125q0.65625 0 1.015625 -0.40625q0.359375 -0.390625 0.359375 -1.09375l0 -0.859375l-0.03125 0q-0.25 0.453125 -0.75 0.703125q-0.484375 0.25 -1.109375 0.25q-1.25 0 -1.953125 -0.828125q-0.703125 -0.828125 -0.703125 -2.28125q0 -1.3125 0.734375 -2.1875q0.734375 -0.890625 1.9375 -0.890625zm-0.96875 3.046875q0 0.875 0.359375 1.375q0.375 0.484375 1.03125 0.484375q0.671875 0 1.0625 -0.484375q0.390625 -0.5 0.390625 -1.234375q0 -0.90625 -0.375 -1.40625q-0.375 -0.5 -1.09375 -0.5q-0.625 0 -1.0 0.484375q-0.375 0.484375 -0.375 1.28125z" fill-rule="nonzero"/></g></svg>